<?xml version="1.0" encoding="UTF-8"?><svg id="uuid-049998ea-cff0-48b4-b4df-9222b65a8253" xmlns="http://www.w3.org/2000/svg" viewBox="0 0 115 120"><path d="m103.03,47.2c0-8.29-4.92-15.61-12.44-18.76.07-.73.1-1.46.1-2.18,0-13.56-11.03-24.6-24.6-24.6-10.43,0-19.63,6.56-23.13,16.21-1.19-.24-2.4-.36-3.62-.36-8.37,0-15.72,5.64-17.97,13.59-7.18,2.76-12.08,9.79-12.08,17.55,0,5.92,2.78,11.39,7.35,14.89.03.03.06.05.1.07.17.13.34.25.51.38.07.05.14.1.21.15.12.08.25.17.38.25.48.32.98.61,1.49.88,0,0,0,0,0,0,.2.11.41.21.62.31,0,0,0,0,0,0,2.19,1.05,4.57,1.68,7.04,1.82.26.1.55.16.84.16h4.85c1.29,0,2.33-1.05,2.33-2.34s-1.05-2.33-2.33-2.33h-4.09c-.23-.08-.47-.12-.73-.13-1.89-.03-3.72-.43-5.42-1.17-.31-.14-.61-.28-.91-.44-.02,0-.04-.02-.06-.03-.29-.15-.57-.31-.85-.49-.04-.02-.07-.04-.11-.07-.22-.14-.43-.28-.64-.43-.08-.05-.15-.1-.22-.16-.22-.16-.43-.32-.63-.49-.11-.09-.21-.18-.31-.27-.11-.1-.22-.2-.32-.29-.11-.11-.23-.22-.34-.33-2.58-2.6-4.11-6.15-4.11-9.94,0-6.18,4.13-11.74,10.05-13.53l1.33-.4.28-1.36c1.33-6.48,7.1-11.18,13.72-11.18,1.51,0,3,.24,4.44.73l2.38.8.63-2.42c2.27-8.8,10.21-14.95,19.3-14.95,10.99,0,19.94,8.94,19.94,19.94,0,1.1-.1,2.22-.28,3.33l-.34,2.01,1.94.61c6.59,2.06,11.03,8.08,11.03,14.99,0,5.84-3.19,11.09-8.25,13.81,0,0-.02,0-.03,0-.25.14-.51.27-.77.39-.03.02-.07.03-.1.05-1.96.91-4.05,1.39-6.23,1.43-.05,0-.1,0-.15,0h-5.47c-1.29,0-2.33,1.04-2.33,2.33s1.04,2.34,2.33,2.34h5.67c.09,0,.18,0,.27-.01,2.42-.08,4.81-.59,7.05-1.5h0c.3-.11.59-.24.87-.38.03-.01.06-.03.09-.04,7.16-3.35,11.73-10.47,11.73-18.43" fill="#469ad4"/><polygon points="70.45 46.01 82.12 46.01 82.12 42.51 67.11 42.51 58.27 61.13 50.72 42.51 30.2 42.51 30.2 46.01 41.75 46.01 54.96 78.61 70.45 46.01" fill="#fff"/><path d="m11.05,92.11h1.63l-4.78,13.51h-2.18l-4.83-13.51h1.62l3.6,10.2.36,1.04c.13.4.24.75.33,1.04h.04c.2-.67.42-1.35.66-2.06l3.54-10.22Z" fill="#fff"/><rect x="16.9" y="92.11" width="1.52" height="13.51" fill="#fff"/><path d="m33.33,95.64h-1.51c0-1.09-.18-1.78-.54-2.07-.36-.29-1.22-.44-2.56-.44-1.6,0-2.63.14-3.09.42-.46.28-.69.91-.69,1.88,0,1.09.18,1.75.54,1.99.36.24,1.44.4,3.24.48,2.1.09,3.44.36,4.01.8.57.44.86,1.43.86,2.97,0,1.66-.33,2.74-.98,3.23-.66.49-2.11.73-4.35.73-1.95,0-3.24-.24-3.89-.74-.64-.49-.96-1.48-.96-2.97v-.6s1.5,0,1.5,0v.34c0,1.21.19,1.96.55,2.25.37.3,1.32.44,2.84.44,1.75,0,2.82-.15,3.23-.44.4-.29.6-1.08.6-2.35,0-.82-.14-1.37-.41-1.65-.27-.27-.85-.44-1.72-.49l-1.58-.08-1.5-.08c-2.29-.16-3.43-1.35-3.43-3.56,0-1.54.33-2.56,1-3.08.67-.51,2-.77,3.99-.77s3.33.24,3.95.72c.61.48.92,1.5.92,3.08" fill="#fff"/><path d="m47.3,100.97h1.51v.51c0,1.84-.31,2.99-.94,3.45-.63.46-2.2.69-4.73.69-2.26,0-3.7-.4-4.31-1.21-.61-.81-.92-2.71-.92-5.7,0-2.34.07-3.81.21-4.42.14-.6.54-1.14,1.19-1.62.76-.55,2.42-.83,4.96-.83,1.72,0,2.88.27,3.48.8.6.54.9,1.57.9,3.1v.37s-1.5,0-1.5,0v-.42c-.01-1.09-.19-1.79-.54-2.1-.35-.31-1.15-.46-2.39-.46-2.18,0-3.5.18-3.99.54-.48.36-.72,1.37-.72,3.02,0,3.79.16,6.02.48,6.67.32.65,1.43.98,3.32.98s2.91-.14,3.36-.42c.45-.28.67-1,.67-2.14l-.02-.8Z" fill="#fff"/><path d="m58.52,91.84c2.55,0,4.15.37,4.79,1.12.64.75.96,2.61.96,5.59,0,3.21-.31,5.19-.92,5.95-.61.75-2.22,1.13-4.83,1.13s-4.2-.37-4.82-1.12c-.62-.74-.94-2.67-.94-5.78v-.95l.02-1.28c0-1.79.4-3.02,1.21-3.67.81-.66,2.32-.98,4.53-.98m0,1.29c-2.14,0-3.39.24-3.75.71-.36.47-.54,2.1-.54,4.89s.18,4.42.54,4.9c.36.47,1.61.71,3.75.71s3.4-.24,3.76-.71c.36-.47.54-2.11.54-4.9v-2.16c0-1.49-.26-2.44-.76-2.84-.5-.4-1.68-.6-3.54-.6" fill="#fff"/><path d="m78.31,95.64h-1.51c0-1.09-.18-1.78-.54-2.07-.36-.29-1.22-.44-2.56-.44-1.6,0-2.63.14-3.09.42-.46.28-.69.91-.69,1.88,0,1.09.18,1.75.54,1.99.36.24,1.44.4,3.24.48,2.1.09,3.44.36,4.01.8.57.44.86,1.43.86,2.97,0,1.66-.33,2.74-.98,3.23-.66.49-2.11.73-4.35.73-1.95,0-3.24-.24-3.88-.74-.64-.49-.97-1.48-.97-2.97v-.6s1.5,0,1.5,0v.34c0,1.21.19,1.96.55,2.25.37.3,1.32.44,2.84.44,1.75,0,2.82-.15,3.23-.44.4-.29.6-1.08.6-2.35,0-.82-.14-1.37-.41-1.65-.27-.27-.85-.44-1.72-.49l-1.58-.08-1.5-.08c-2.29-.16-3.43-1.35-3.43-3.56,0-1.54.33-2.56,1-3.08.66-.51,2-.77,3.99-.77s3.33.24,3.95.72c.61.48.92,1.5.92,3.08" fill="#fff"/><rect x="83.42" y="92.11" width="1.52" height="13.51" fill="#fff"/><polygon points="95.3 93.53 95.3 105.62 93.78 105.62 93.78 93.53 89.37 93.53 89.37 92.11 99.66 92.11 99.66 93.53 95.3 93.53" fill="#fff"/><path d="m114.28,92.11l-5.11,7.87v5.64h-1.52v-5.64l-4.98-7.87h1.77l2.9,4.56.55.88c.07.11.16.25.28.43l.27.45h.04c.12-.2.21-.35.27-.45l.27-.43.56-.88,2.89-4.56h1.81Z" fill="#fff"/><polygon points="22.71 112.44 22.71 119.06 21.48 119.06 18.71 114.55 18.26 113.81 18.03 113.44 17.81 113.07 17.79 113.07 17.8 113.32 17.8 113.57 17.8 114.07 17.8 119.06 17.05 119.06 17.05 112.44 18.28 112.44 20.69 116.39 21.32 117.42 21.64 117.94 21.95 118.46 21.97 118.46 21.97 118.21 21.96 117.96 21.96 117.46 21.96 112.44 22.71 112.44" fill="#fff"/><path d="m27.18,112.37c1.25,0,2.03.18,2.35.55.31.36.47,1.28.47,2.74,0,1.57-.15,2.55-.45,2.91-.3.37-1.09.55-2.37.55s-2.06-.18-2.36-.55c-.31-.37-.46-1.31-.46-2.83v-1.09c0-.88.21-1.48.6-1.8.4-.32,1.14-.48,2.22-.48m0,.63c-1.05,0-1.66.12-1.84.35-.18.23-.27,1.03-.27,2.39s.09,2.17.27,2.4c.18.23.79.35,1.84.35s1.67-.11,1.84-.35c.18-.23.27-1.03.27-2.4v-1.06c0-.73-.13-1.19-.37-1.39-.25-.2-.82-.3-1.74-.3" fill="#fff"/><path d="m31.65,119.06v-6.62h3.15c.71,0,1.21.14,1.5.42.29.28.44.77.44,1.46,0,.61-.08,1.04-.24,1.28-.16.24-.46.4-.91.47h0c.7.07,1.05.49,1.05,1.3v1.69h-.75v-1.52c0-.77-.34-1.16-1-1.16h-2.5v2.68h-.75Zm.75-3.31h2.16c.57,0,.96-.09,1.16-.26.21-.17.31-.5.31-.98,0-.6-.08-.99-.23-1.17-.15-.18-.48-.27-.99-.27h-2.41v2.68Z" fill="#fff"/><polygon points="40.94 113.13 40.94 119.06 40.19 119.06 40.19 113.13 38.03 113.13 38.03 112.44 43.07 112.44 43.07 113.13 40.94 113.13" fill="#fff"/><polygon points="49.9 112.44 49.9 119.06 49.15 119.06 49.15 115.99 45.28 115.99 45.28 119.06 44.53 119.06 44.53 112.44 45.28 112.44 45.28 115.36 49.15 115.36 49.15 112.44 49.9 112.44" fill="#fff"/><path d="m59.29,117.66h-3.35l-.51,1.4h-.79l2.42-6.62h1.05l2.47,6.62h-.78l-.51-1.4Zm-.22-.56l-1.47-4.04-1.45,4.04h2.92Z" fill="#fff"/><path d="m69.32,112.44v6.62h-.75v-5.89s.01-.2.01-.2h-.02l-.06.15c-.03.08-.05.13-.06.15l-.13.31-2.26,5.47h-.75l-2.26-5.41-.13-.31-.06-.15s-.04-.09-.06-.15h-.02v.18s0,.18,0,.18v5.66h-.75v-6.62h1.29l1.77,4.28.28.69.14.34.14.34h.02l.14-.34c.07-.17.11-.28.14-.34l.29-.69,1.75-4.29h1.31Z" fill="#fff"/><polygon points="71.85 113.07 71.85 115.32 75.21 115.32 75.21 115.95 71.85 115.95 71.85 118.43 75.36 118.43 75.36 119.06 71.11 119.06 71.11 112.44 75.36 112.44 75.36 113.07 71.85 113.07" fill="#fff"/><path d="m77.11,119.06v-6.62h3.15c.71,0,1.21.14,1.5.42.29.28.44.77.44,1.46,0,.61-.08,1.04-.24,1.28-.16.24-.46.4-.91.47h0c.7.07,1.05.49,1.05,1.3v1.69h-.75v-1.52c0-.77-.33-1.16-1-1.16h-2.5v2.68h-.75Zm.75-3.31h2.16c.57,0,.96-.09,1.16-.26.21-.17.31-.5.31-.98,0-.6-.08-.99-.23-1.17-.15-.18-.48-.27-.99-.27h-2.41v2.68Z" fill="#fff"/><rect x="84.09" y="112.44" width=".75" height="6.62" fill="#fff"/><path d="m91.25,116.85h.74v.25c0,.9-.15,1.47-.46,1.69-.31.22-1.08.34-2.32.34-1.11,0-1.81-.2-2.11-.59-.3-.4-.45-1.33-.45-2.8,0-1.15.03-1.87.1-2.16.07-.3.26-.56.58-.79.38-.27,1.18-.41,2.43-.41.84,0,1.41.13,1.7.39.3.26.44.77.44,1.52v.18s-.74,0-.74,0v-.2c0-.53-.09-.88-.26-1.03-.17-.15-.56-.23-1.17-.23-1.07,0-1.72.09-1.95.27-.24.18-.35.67-.35,1.48,0,1.86.08,2.95.24,3.27.16.32.7.48,1.62.48s1.43-.07,1.65-.21c.22-.14.33-.49.33-1.05v-.39Z" fill="#fff"/><path d="m97.7,117.66h-3.35l-.51,1.4h-.79l2.42-6.62h1.05l2.47,6.62h-.78l-.51-1.4Zm-.22-.56l-1.47-4.04-1.45,4.04h2.92Z" fill="#fff"/></svg>