<svg width="644" height="167" viewBox="0 0 644 167" fill="none" xmlns="http://www.w3.org/2000/svg">
<path fill-rule="evenodd" clip-rule="evenodd" d="M47.9593 86.699L35.7976 86.699C32.5787 86.699 29.6044 88.4161 27.9949 91.2035L13.4878 116.328C11.8784 119.115 11.8784 122.55 13.4878 125.337L27.9949 150.461C29.6044 153.249 32.5787 154.966 35.7976 154.966L64.8118 154.966C68.0307 154.966 71.0051 153.249 72.6145 150.461L87.1216 125.337C88.7311 122.55 88.7311 119.115 87.1216 116.328L81.0407 105.797L59.9976 117.868C60.7904 120.462 60.5461 123.366 59.0828 125.9C56.2838 130.747 50.0847 132.408 45.2367 129.61C40.3888 126.811 38.7277 120.612 41.5267 115.765C42.9899 113.231 45.3824 111.567 48.0254 110.957L47.9593 86.699ZM78.7882 101.896L57.7581 113.96C57.0809 113.226 56.283 112.581 55.3727 112.055C54.4624 111.53 53.5044 111.161 52.5302 110.942L52.4642 86.699L64.8118 86.699C68.0307 86.699 71.0051 88.4161 72.6145 91.2035L78.7882 101.896Z" fill="#909AB8"/>
<path fill-rule="evenodd" clip-rule="evenodd" d="M128.983 49.886C132.202 49.886 135.176 51.6031 136.785 54.3905L151.293 79.515C152.902 82.3024 152.902 85.7365 151.293 88.5239L136.785 113.648C135.176 116.436 132.202 118.153 128.983 118.153L99.9685 118.153C96.7496 118.153 93.7753 116.436 92.1658 113.648L85.992 102.956L107.022 90.8918C107.699 91.6256 108.497 92.2711 109.408 92.7966C114.256 95.5953 120.455 93.9344 123.254 89.0869C126.053 84.2394 124.392 78.041 119.544 75.2423C115.366 72.8306 110.185 73.7304 107.041 77.1271L86.0385 65.0023L92.1658 54.3905C93.7753 51.6031 96.7496 49.886 99.9685 49.886L128.983 49.886ZM83.7395 99.0552L77.6587 88.5239C76.0493 85.7365 76.0493 82.3024 77.6587 79.515L83.786 68.9032L104.789 81.028C104.178 83.0005 104.2 85.0757 104.783 86.9833L83.7395 99.0552Z" fill="#15DB95"/>
<path fill-rule="evenodd" clip-rule="evenodd" d="M80.7929 61.974L86.9202 51.3623C88.5297 48.5749 88.5297 45.1407 86.9202 42.3534L72.4131 17.2289C70.8037 14.4415 67.8293 12.7244 64.6104 12.7244L35.5962 12.7244C32.3773 12.7244 29.4029 14.4415 27.7935 17.2288L13.2864 42.3534C11.677 45.1407 11.677 48.5749 13.2864 51.3623L27.7935 76.4868C29.4029 79.2742 32.3773 80.9913 35.5962 80.9913L47.9438 80.9913L47.8778 56.7483C46.9036 56.5288 45.9456 56.1605 45.0353 55.635C40.1873 52.8363 38.5263 46.6378 41.3253 41.7903C44.1243 36.9428 50.3233 35.282 55.1713 38.0807C59.3489 40.4923 61.16 45.4284 59.7901 49.8492L80.7929 61.974ZM52.4487 80.9913L52.3826 56.7333C54.3264 56.2843 56.1348 55.2658 57.5377 53.7502L78.5405 65.875L72.4131 76.4868C70.8037 79.2742 67.8293 80.9913 64.6104 80.9913L52.4487 80.9913Z" fill="#3B7DFF"/>
<path d="M209.369 108.066C224.087 108.066 232.814 98.8928 232.814 83.6837C232.814 68.5221 224.087 59.3966 209.699 59.3966H193V108.066H209.369ZM201.751 100.437V67.0249H209.204C219.016 67.0249 224.135 72.5382 224.135 83.6837C224.135 94.8766 219.016 100.437 208.945 100.437H201.751Z" fill="#F4F5F8"/>
<path d="M305.206 66.7873H320.136V108.066H328.816V66.7873H343.746V59.3966H305.206V66.7873Z" fill="#F4F5F8"/>
<path d="M419.971 108.066H449.996V100.675H428.721V59.3966H419.971V108.066Z" fill="#F4F5F8"/>
<path d="M512.158 83.7312C512.158 67.9993 502.629 58.7312 489.963 58.7312C477.273 58.7312 467.768 67.9993 467.768 83.7312C467.768 99.4394 477.273 108.731 489.963 108.731C502.629 108.731 512.158 99.4631 512.158 83.7312ZM503.36 83.7312C503.36 94.8053 497.841 100.818 489.963 100.818C482.109 100.818 476.566 94.8053 476.566 83.7312C476.566 72.6571 482.109 66.6447 489.963 66.6447C497.841 66.6447 503.36 72.6571 503.36 83.7312Z" fill="#F4F5F8"/>
<path d="M566.076 74.9384H574.992C573.506 65.3852 565.298 58.7312 554.613 58.7312C541.971 58.7312 532.489 68.0943 532.489 83.7787C532.489 99.178 541.546 108.731 554.873 108.731C566.831 108.731 575.393 100.984 575.393 88.4365V82.5905H555.792V89.4822H566.925C566.784 96.4213 562.184 100.818 554.92 100.818C546.829 100.818 541.287 94.7103 541.287 83.6837C541.287 72.7284 546.924 66.6447 554.731 66.6447C560.557 66.6447 564.52 69.7816 566.076 74.9384Z" fill="#F4F5F8"/>
<path d="M596.242 108.066H632V100.675H607.116L631.858 64.8861V59.3966H596.101V66.7873H621.009L596.242 102.576V108.066Z" fill="#F4F5F8"/>
<path d="M293.52 108.066H284.179L271.277 69.3779H270.482L258.022 108.066H248.681L265.687 59.3969H276.49L293.52 108.066Z" fill="#F4F5F8"/>
<path d="M400.324 108.066H390.984L378.082 69.3779H377.704L364.826 108.066H355.486L372.492 59.3969H383.294L400.324 108.066Z" fill="#F4F5F8"/>
</svg>
