<svg id="Layer_1" data-name="Layer 1" xmlns="http://www.w3.org/2000/svg" xmlns:xlink="http://www.w3.org/1999/xlink" width="79.5" height="58.68" viewBox="0 0 79.5 58.68"><defs><style>.cls-1{fill:url(#linear-gradient);}</style><linearGradient id="linear-gradient" x1="-0.16" y1="26.27" x2="84.87" y2="36.73" gradientUnits="userSpaceOnUse"><stop offset="0" stop-color="#ed3331"/><stop offset="0.25" stop-color="#eb912b"/><stop offset="0.32" stop-color="#ebab2a"/><stop offset="0.66" stop-color="#00a361"/><stop offset="1" stop-color="#4b80c1"/></linearGradient></defs><path class="cls-1" d="M59,11.9,71.7,33.83l6.6,11.44a8.94,8.94,0,0,1-15.48,8.94l-3.47-6L42.9,19.69a3.66,3.66,0,0,0-5.69-.79,4.2,4.2,0,0,0-.6.79L16.68,54.21A8.94,8.94,0,1,1,1.2,45.27L21.13,10.75a21.51,21.51,0,0,1,37.25,0ZM32.74,17.46l0,0a9,9,0,0,1,1-1.35,25,25,0,0,1,2.34-2.73A23.71,23.71,0,0,1,48.4,6.79a17,17,0,0,0-8.64-2.32A16.84,16.84,0,0,0,25,13L5.07,47.5a4.39,4.39,0,0,0-.6,2.23A4.48,4.48,0,0,0,12.82,52Z"/></svg>