<?xml version="1.0" encoding="utf-8"?>
<!-- Generator: Adobe Illustrator 25.4.1, SVG Export Plug-In . SVG Version: 6.00 Build 0)  -->
<svg version="1.1" id="Layer_1" xmlns="http://www.w3.org/2000/svg" xmlns:xlink="http://www.w3.org/1999/xlink" x="0px" y="0px"
	 viewBox="0 0 250.1 71" style="enable-background:new 0 0 250.1 71;" xml:space="preserve">
<style type="text/css">
	.st0{fill:#0D4BA0;}
</style>
<path class="st0" d="M71.7,23.8h9.7v23.7h-9.8L71.7,23.8z"/>
<path class="st0" d="M76.6,14.5c2.2,0,4.7,1.6,4.7,4.5s-2.8,4.6-4.7,4.6c-1.9,0-4.7-1.5-4.7-4.6C71.8,15.9,74.4,14.5,76.6,14.5z"/>
<path class="st0" d="M54.3,56.5V35c0,0,0.9-2.4,2.9-2.4s3.4,1.4,3.4,2.8c0,1.5-0.8,3.2-3.5,3.2c-0.9,0-1.5-0.4-1.5-0.4v9.5
	c7.3,0.9,14.8-3.7,14.8-12.4s-8.6-11.9-13.3-11.9s-12.7,3.3-12.7,11.9s0.1,21.1,0.1,21.1L54.3,56.5L54.3,56.5z"/>
<path class="st0" d="M43.5,45.5L39,37.6c0,0-1.1,1.1-2.9,1.1c-1.9,0-3.1-1.5-3.1-3.1s1.4-3,3.1-3c1.7,0,2.8,1,2.8,1l4.8-7.8
	c0,0-2.4-2.4-7.6-2.4s-12.9,4.3-12.9,12.2s7.3,12.2,12.9,12.2C41.6,48,43.5,45.5,43.5,45.5z"/>
<path class="st0" d="M10.7,38c0,0-2-2.1-0.1-4c1.9-2,3.9-0.4,3.9-0.4L10.7,38z M17.8,38.6c-0.9,0.4-2.1,0.3-2.1,0.3l8.1-9.6
	c0,0-3.7-5.8-10.7-5.8c-6.9,0.1-13,5.6-13,12.2s4.8,12.4,13.1,12.4s9.6-2.5,9.6-2.5l-2.9-8.3C19.9,37.2,18.8,38.2,17.8,38.6z"/>
<path class="st0" d="M68.6,18h-69v1.3h69V18z"/>
<path class="st0" d="M250.4,18H84.8v1.3h165.8V18H250.4z"/>
<path class="st0" d="M41.6,51.5h-42v1.3h42V51.5z"/>
<path class="st0" d="M250.4,51.5H57.6v1.3h192.9V51.5z"/>
<path class="st0" d="M92.2,36.5v-9.2h4.6V37c0,1,0.2,1.8,0.7,2.3s1.3,0.8,2.3,0.8s1.8-0.2,2.3-0.8c0.5-0.5,0.7-1.3,0.7-2.3v-9.7h4.6
	v9.2c0,2.3-0.7,4-2,5.2s-3.2,1.9-5.6,1.9s-4.3-0.6-5.6-1.9C93,40.5,92.2,38.8,92.2,36.5z"/>
<path class="st0" d="M111,43.5V27.3h4.6l7.2,9.7v-9.7h4.6v16.2h-4.5l-7.3-9.6v9.6H111z"/>
<path class="st0" d="M131.2,43.5V27.3h4.6v16.2H131.2z"/>
<path class="st0" d="M138.6,27.3h4.9l4,11.4l4-11.4h4.9l-6.8,16.2h-4.2L138.6,27.3z"/>
<path class="st0" d="M159.1,43.5V27.3h12.4v3.4h-7.8v3h6.8v3.4h-6.8v3h7.8v3.4H159.1L159.1,43.5z"/>
<path class="st0" d="M175.2,43.5V27.3h7c2.2,0,3.9,0.5,5.2,1.4s2,2.2,2,3.9c0,1.3-0.3,2.3-1,3.2c-0.6,0.8-1.5,1.4-2.6,1.7l4.3,6
	h-5.1l-3.3-5.4h-1.9v5.4H175.2L175.2,43.5z M179.8,35h2.7c0.6,0,1.2-0.2,1.6-0.6c0.5-0.4,0.7-0.9,0.7-1.5s-0.2-1.1-0.7-1.5
	s-1-0.6-1.6-0.6h-2.7V35z"/>
<path class="st0" d="M192.4,32.2c0-1.7,0.6-2.9,1.9-3.7c1.3-0.8,2.8-1.3,4.7-1.3c1.7,0,3.3,0.4,4.8,1.1V32c-1.4-0.8-2.8-1.2-4.1-1.2
	c-0.7,0-1.3,0.1-1.9,0.3c-0.5,0.2-0.8,0.6-0.8,1c0,0.3,0.2,0.6,0.6,0.8c0.4,0.2,0.9,0.4,1.5,0.5s1.3,0.3,2,0.5s1.4,0.5,2,0.9
	c0.6,0.3,1.1,0.9,1.5,1.6c0.4,0.7,0.6,1.6,0.6,2.6c0,1.4-0.6,2.5-1.9,3.4c-1.2,0.9-2.8,1.3-4.5,1.3c-2.4,0-4.5-0.5-6.2-1.5v-3.9
	c1.6,1.2,3.5,1.9,5.5,1.9l0,0c0.7,0,1.3-0.1,1.8-0.4c0.5-0.2,0.7-0.6,0.7-1c0-0.3-0.2-0.5-0.5-0.8c-0.3-0.2-0.7-0.4-1.2-0.5
	l-1.6-0.4c-0.6-0.1-1.2-0.3-1.7-0.5c-0.6-0.2-1.1-0.5-1.6-0.8s-0.9-0.8-1.2-1.4C192.6,33.8,192.4,33,192.4,32.2z"/>
<path class="st0" d="M208.1,43.5V27.3h4.6v16.2H208.1z"/>
<path class="st0" d="M215.1,31v-3.6h14.9V31h-5.2v12.6h-4.6V31H215.1z"/>
<path class="st0" d="M231.4,27.3h5.6l3.8,6.1l3.8-6.1h5.6l-7.1,9.3v6.9h-4.6v-6.8L231.4,27.3z"/>
</svg>
