<?xml version="1.0" encoding="UTF-8" standalone="no"?>
<!-- Generator: Adobe Illustrator 23.0.1, SVG Export Plug-In . SVG Version: 6.00 Build 0)  -->

<svg
   xmlns:dc="http://purl.org/dc/elements/1.1/"
   xmlns:cc="http://creativecommons.org/ns#"
   xmlns:rdf="http://www.w3.org/1999/02/22-rdf-syntax-ns#"
   xmlns:svg="http://www.w3.org/2000/svg"
   xmlns="http://www.w3.org/2000/svg"
   xmlns:sodipodi="http://sodipodi.sourceforge.net/DTD/sodipodi-0.dtd"
   xmlns:inkscape="http://www.inkscape.org/namespaces/inkscape"
   version="1.1"
   id="Layer_1"
   x="0px"
   y="0px"
   viewBox="0 0 232.50999 42.987499"
   xml:space="preserve"
   sodipodi:docname="Excella-logo-01.svg"
   width="232.50999"
   height="42.987499"
   inkscape:version="0.92.3 (2405546, 2018-03-11)"><metadata
   id="metadata33"><rdf:RDF><cc:Work
       rdf:about=""><dc:format>image/svg+xml</dc:format><dc:type
         rdf:resource="http://purl.org/dc/dcmitype/StillImage" /></cc:Work></rdf:RDF></metadata><defs
   id="defs31" /><sodipodi:namedview
   pagecolor="#ffffff"
   bordercolor="#666666"
   borderopacity="1"
   objecttolerance="10"
   gridtolerance="10"
   guidetolerance="10"
   inkscape:pageopacity="0"
   inkscape:pageshadow="2"
   inkscape:window-width="640"
   inkscape:window-height="480"
   id="namedview29"
   showgrid="false"
   inkscape:zoom="1.0659694"
   inkscape:cx="116.26"
   inkscape:cy="21.4975"
   inkscape:window-x="0"
   inkscape:window-y="1"
   inkscape:window-maximized="0"
   inkscape:current-layer="Layer_1" />
<style
   type="text/css"
   id="style2">
	.st0{fill:#ED1926;}
	.st1{fill:#070606;}
</style>
<g
   id="g26"
   transform="translate(-8.04,-5.92)">
	<path
   class="st0"
   d="m 8.43,10.55 10.88,10.88 c 0.25,0.25 0.58,0.39 0.93,0.39 h 13.54 c 0.72,0 1.31,0.59 1.31,1.31 v 13.54 c 0,0.35 0.14,0.68 0.38,0.93 l 10.84,10.84 c 0.83,0.83 2.24,0.24 2.24,-0.93 V 9.62 c 0,-0.73 -0.59,-1.31 -1.31,-1.31 H 9.36 c -1.17,0 -1.76,1.41 -0.93,2.24"
   id="path4"
   inkscape:connector-curvature="0"
   style="fill:#ed1926" />
	<path
   class="st0"
   d="m 35.34,48.06 -0.08,0.08 c -0.91,0.91 -2.4,0.91 -3.32,0 L 8.73,25 c -0.91,-0.91 -0.91,-2.41 0,-3.32 L 8.8,21.6 c 0.91,-0.91 2.4,-0.91 3.32,0 l 23.22,23.14 c 0.92,0.92 0.92,2.41 0,3.32"
   id="path6"
   inkscape:connector-curvature="0"
   style="fill:#ed1926" />
	<path
   class="st0"
   d="m 22.72,48.3 v 0 c -0.81,0.81 -2.12,0.81 -2.93,0 L 8.65,37.16 c -0.81,-0.81 -0.81,-2.12 0,-2.93 0.81,-0.81 2.12,-0.81 2.93,0 l 11.14,11.14 c 0.8,0.8 0.8,2.12 0,2.93"
   id="path8"
   inkscape:connector-curvature="0"
   style="fill:#ed1926" />
	<path
   class="st0"
   d="M 8.04,46.91 C 8.04,45.86 8.9,45 9.95,45 c 1.06,0 1.91,0.85 1.91,1.91 0,1.06 -0.85,1.91 -1.91,1.91 -1.05,0 -1.91,-0.85 -1.91,-1.91"
   id="path10"
   inkscape:connector-curvature="0"
   style="fill:#ed1926" />
	<path
   class="st1"
   d="m 59.76,9.19 v 38.37 c 0,0.48 0.39,0.86 0.86,0.86 h 26.32 c 0.3,0 0.58,-0.16 0.74,-0.41 l 3.52,-5.77 c 0.35,-0.58 -0.06,-1.31 -0.74,-1.31 h -20.8 c -0.48,0 -0.86,-0.39 -0.86,-0.87 V 32.9 c 0,-0.48 0.39,-0.86 0.86,-0.86 h 17.57 c 0.48,0 0.86,-0.39 0.86,-0.86 V 25.4 c 0,-0.48 -0.39,-0.86 -0.86,-0.86 H 69.67 c -0.48,0 -0.86,-0.39 -0.86,-0.86 V 16.7 c 0,-0.48 0.39,-0.86 0.86,-0.86 h 19.75 c 0.48,0 0.86,-0.39 0.86,-0.86 V 9.19 c 0,-0.48 -0.39,-0.86 -0.86,-0.86 H 60.62 C 60.14,8.32 59.76,8.71 59.76,9.19"
   id="path12"
   inkscape:connector-curvature="0"
   style="fill:#070606" />
	<path
   class="st1"
   d="m 114.28,17.85 -5.4,8.38 c -0.21,0.33 -0.69,0.32 -0.9,-0.01 l -5.08,-8.36 c -0.1,-0.16 -0.27,-0.25 -0.45,-0.25 h -8.8 c -0.42,0 -0.67,0.47 -0.44,0.82 l 9.17,13.95 c 0.12,0.18 0.12,0.41 0,0.59 l -9.9,14.64 c -0.24,0.35 0.01,0.83 0.44,0.83 h 8.46 c 0.18,0 0.34,-0.09 0.44,-0.23 l 6.14,-9.16 c 0.22,-0.32 0.69,-0.31 0.89,0.02 l 5.6,9.13 c 0.1,0.16 0.27,0.25 0.45,0.25 h 8.86 c 0.42,0 0.67,-0.47 0.44,-0.82 l -9.74,-14.7 c -0.12,-0.18 -0.12,-0.4 0,-0.58 l 9.07,-13.9 c 0.23,-0.35 -0.02,-0.82 -0.44,-0.82 h -8.36 c -0.18,-0.02 -0.35,0.07 -0.45,0.22"
   id="path14"
   inkscape:connector-curvature="0"
   style="fill:#070606" />
	<path
   class="st1"
   d="m 149.43,21.96 c 0.13,-0.19 0.11,-0.46 -0.07,-0.62 -0.99,-0.92 -2.1,-1.71 -3.38,-2.34 -2.29,-1.12 -4.91,-1.69 -7.85,-1.69 -3.13,0 -5.89,0.66 -8.28,1.98 -2.39,1.32 -4.24,3.17 -5.56,5.56 -1.32,2.39 -1.97,5.14 -1.97,8.28 0,3.09 0.66,5.82 1.97,8.19 1.32,2.37 3.16,4.2 5.53,5.5 2.37,1.3 5.1,1.95 8.19,1.95 3.13,0 5.87,-0.59 8.22,-1.78 1.24,-0.62 2.31,-1.4 3.25,-2.3 0.17,-0.16 0.19,-0.42 0.06,-0.61 l -3.67,-5.52 c -0.18,-0.27 -0.57,-0.27 -0.77,-0.02 -1.55,1.92 -3.76,2.89 -6.63,2.89 -2.14,0 -3.9,-0.77 -5.27,-2.32 -1.38,-1.55 -2.06,-3.56 -2.06,-6.04 0,-2.48 0.7,-4.48 2.09,-5.99 1.39,-1.51 3.2,-2.26 5.41,-2.26 2.55,0 4.66,0.89 6.34,2.67 0.21,0.22 0.57,0.21 0.74,-0.05 z"
   id="path16"
   inkscape:connector-curvature="0"
   style="fill:#070606" />
	<path
   class="st1"
   d="m 185.58,48.42 h 7.17 c 0.46,0 0.82,-0.37 0.82,-0.82 V 6.75 c 0,-0.46 -0.37,-0.83 -0.82,-0.83 h -7.17 c -0.46,0 -0.83,0.37 -0.83,0.83 V 47.6 c 0,0.45 0.37,0.82 0.83,0.82"
   id="path18"
   inkscape:connector-curvature="0"
   style="fill:#070606" />
	<path
   class="st1"
   d="m 200.25,48.42 h 7.49 c 0.37,0 0.67,-0.3 0.67,-0.67 V 6.59 c 0,-0.37 -0.3,-0.67 -0.67,-0.67 h -7.49 c -0.37,0 -0.67,0.3 -0.67,0.67 v 41.17 c 0,0.36 0.3,0.66 0.67,0.66"
   id="path20"
   inkscape:connector-curvature="0"
   style="fill:#070606" />
	<path
   class="st1"
   d="m 177.29,21.61 c -2.58,-2.86 -6.35,-4.3 -11.31,-4.3 -3.09,0 -5.84,0.66 -8.25,1.98 -2.4,1.32 -4.28,3.17 -5.61,5.56 -1.34,2.39 -2.01,5.15 -2.01,8.28 0,3.09 0.66,5.82 1.98,8.19 1.32,2.37 3.19,4.2 5.61,5.5 2.42,1.3 5.26,1.95 8.51,1.95 2.75,0 5.24,-0.47 7.47,-1.4 2.05,-0.86 3.83,-2.07 5.32,-3.62 0.22,-0.23 0.21,-0.59 -0.01,-0.82 l -3.84,-3.89 c -0.22,-0.22 -0.58,-0.22 -0.81,-0.01 -0.96,0.88 -2.03,1.56 -3.2,2.04 -1.34,0.55 -2.73,0.83 -4.18,0.83 -1.99,0 -3.68,-0.54 -5.1,-1.63 -0.75,-0.58 -1.36,-1.28 -1.85,-2.09 H 160 c -0.21,-0.36 -0.39,-0.72 -0.54,-1.08 0,0 0,0 0,0 -0.2,-0.46 -0.35,-0.92 -0.47,-1.38 h 21.57 c 0.31,0 0.57,-0.24 0.58,-0.55 0.02,-0.43 0.03,-0.95 0.03,-1.57 -0.01,-5.13 -1.3,-9.12 -3.88,-11.99 m -5.06,8.88 h -13.41 c 0.17,-0.96 0.38,-1.56 0.38,-1.56 h 0.01 c 0.43,-1.34 1.11,-2.46 2.05,-3.34 1.28,-1.2 2.87,-1.81 4.78,-1.81 2.02,0 3.65,0.61 4.87,1.83 1.09,1.09 1.73,2.51 1.9,4.24 0.03,0.35 -0.25,0.64 -0.58,0.64"
   id="path22"
   inkscape:connector-curvature="0"
   style="fill:#070606" />
	<path
   class="st1"
   d="m 231.85,37.81 c 0,0.04 0,0.09 -0.01,0.13 -0.28,1.31 -1.08,2.39 -2.39,3.26 -1.34,0.88 -2.92,1.32 -4.75,1.32 -1.49,0 -2.66,-0.35 -3.52,-1.06 -0.86,-0.71 -1.29,-1.65 -1.29,-2.83 0,-1.22 0.41,-2.11 1.23,-2.67 0.82,-0.55 2.09,-0.83 3.81,-0.83 h 6.41 c 0.29,0 0.53,0.24 0.53,0.53 v 2.15 z m -5.68,-13.58 c 1.51,0.01 3.09,0.52 4.05,1.31 1.09,0.9 1.63,2.17 1.63,3.81 v 0.57 h -8.48 c -3.74,0.04 -6.64,0.87 -8.68,2.49 -2.04,1.62 -3.07,3.89 -3.07,6.79 0,2.86 0.95,5.18 2.86,6.96 1.91,1.78 4.49,2.66 7.73,2.66 2.14,0 4.03,-0.34 5.67,-1.03 1.2,-0.5 2.24,-1.17 3.11,-2 0.34,-0.32 0.9,-0.1 0.9,0.37 v 1.73 c 0,0.29 0.24,0.53 0.53,0.53 h 7.6 c 0.29,0 0.53,-0.24 0.53,-0.53 l -0.06,-19.58 c -0.04,-3.47 -1.19,-6.18 -3.47,-8.13 -2.26,-1.93 -5.43,-2.9 -9.51,-2.92 -0.01,0 -0.01,0 -0.01,0 0,0 -4.01,0 -12.7,0.62 -0.06,0 -0.3,0.02 -0.33,0.33 v 6.13 c 0,0.18 0.17,0.36 0.48,0.31 0.01,0 4.74,-0.45 11.22,-0.42"
   id="path24"
   inkscape:connector-curvature="0"
   style="fill:#070606" />
</g>
</svg>