<?xml version="1.0" encoding="UTF-8"?>
<svg id="Layer_1" data-name="Layer 1" xmlns="http://www.w3.org/2000/svg" version="1.1" viewBox="0 0 112 30">
  <defs>
    <style>
      .cls-1 {
        fill: #6fbf50;
      }

      .cls-1, .cls-2 {
        stroke-width: 0px;
      }

      .cls-2 {
        fill: #1d3756;
      }
    </style>
  </defs>
  <path class="cls-2" d="M13.2,11.7c-2.2,0-4.1,1.9-4.1,4.2s1.8,4.2,4.1,4.2,4.1-1.9,4.1-4.2-1.8-4.2-4.1-4.2Z"/>
  <path class="cls-2" d="M53.4,9.3c4.8,0,8.5,3.7,8.5,8.8s0,.9,0,1.3c0,.5-.4.8-.8.8h-12.6c.1,2.6,2.3,5.1,5.3,5.1s3.2-.8,4.1-1.4c.6-.3.9-.5,1.3,0l1.3,1.8c.3.4.5.8,0,1.2-1.3,1.2-3.8,2.4-6.9,2.4-5.6,0-9.3-4.5-9.3-9.9s3.7-9.9,9.3-9.9ZM57.7,17.2c-.1-2.3-2-4.2-4.3-4.2s-4.5,1.8-4.7,4.2h9Z"/>
  <path class="cls-2" d="M62.5,10.9c-.3-.6,0-1.1.7-1.1h2.7c.5,0,.7.2.8.5l4.8,11.2h0l5-11.2c.2-.5.7-.5,1.3-.5h2.1c.7,0,1,.5.7,1.1l-8.2,17.8c0,.2-.4.5-.8.5h-.2c-.4,0-.7-.2-.8-.5l-8.2-17.8h0Z"/>
  <path class="cls-2" d="M85.2,4.4c0-.9.7-1.7,1.6-1.7s1.6.8,1.6,1.7-.7,1.6-1.6,1.6-1.6-.7-1.6-1.6ZM85.7,10.3c0-.3.3-.6.6-.6h.9c.3,0,.6.3.6.6v18.1c0,.4-.2.6-.6.6h-.9c-.3,0-.5-.3-.5-.6V10.3Z"/>
  <path class="cls-2" d="M102,9.2c5.3,0,9.5,4.6,9.5,10.1s-4.2,10.2-9.5,10.2-9.5-4.5-9.5-10.2,4.2-10.1,9.5-10.1ZM102,27.5c4.2,0,7.4-3.6,7.4-8.2s-3.3-8.1-7.4-8.1-7.5,3.6-7.5,8.1,3.3,8.2,7.5,8.2Z"/>
  <path class="cls-2" d="M79.1,27.6c0-.9.7-1.7,1.6-1.7s1.6.8,1.6,1.7-.7,1.6-1.6,1.6-1.6-.7-1.6-1.6Z"/>
  <path class="cls-2" d="M44,9.9c-.7-.3-.9-.3-1.6-.4,0,0,0,0-.1,0,0,0-.1,0-.2,0-.5,0-.9-.1-1.4-.1-3.4,0-5.1,2.3-5.4,2.7v-1.6c0-.4-.4-.7-.8-.7h-1.9c-.5,0-.9.4-.9.9v17.1c0,.5.4.9.9.9h2.2c.7,0,1.3,0,1.3-.9v-12c.2-.3,1.5-2.4,4.2-2.3.6,0,1.2,0,1.8.2.2,0,.4,0,.5,0,.1,0,.3-.4.3-.5.5-1,.8-1.5,1.4-2.3.2-.2.2-.8-.4-1h0Z"/>
  <path class="cls-1" d="M26,15.9v-.3h0c0-3.9-1.9-7.4-4.6-9.7l-2.8,1.7c2.7,1.8,4.5,4.9,4.5,8.4,0,5.5-4.4,10-9.8,10S3.5,21.4,3.5,15.9,7.4,6.4,12.4,6v2.5l6.8-4L12.4.5v2.4C5.7,3.4.5,9,.5,15.9s5.5,12.8,12.4,13h0s13.1,0,13.1,0v-13h0Z"/>
</svg>