<?xml version="1.0" encoding="UTF-8"?>
<svg width="200px" height="53px" viewBox="0 0 200 53" version="1.1" xmlns="http://www.w3.org/2000/svg" xmlns:xlink="http://www.w3.org/1999/xlink">
    <title>Green-Horizontal-Logo-Matillion</title>
    <g id="Symbols" stroke="none" stroke-width="1" fill="none" fill-rule="evenodd">
        <g id="Nav" transform="translate(-92.000000, -30.000000)" fill-rule="nonzero">
            <g id="Green-Horizontal-Logo-Matillion" transform="translate(92.000000, 30.000000)">
                <path d="M86.4768201,24.3129126 L86.4768201,36.7044192 L81.4786716,36.7044192 L81.4786716,24.0618311 C81.4786716,20.9531164 80.0083092,19.4412081 77.9490792,19.4412081 C76.0596454,19.4412081 74.4646454,20.660489 74.2117575,23.3898718 L74.2117575,36.7044192 L69.213609,36.7044192 L69.213609,24.0618311 C69.213609,20.9531164 67.7432465,19.4412081 65.6858229,19.4412081 C63.6283993,19.4412081 62.0297866,20.8700247 61.905149,23.6409534 L61.905149,36.7044192 L56.9485463,36.7044192 L56.9485463,15.3679067 L60.183705,15.3679067 L61.023654,17.0911571 C62.4958228,15.5377029 64.5098942,14.7808455 66.525772,14.7808455 C69.3400529,14.7808455 71.4823746,15.7056927 72.7432014,17.7631163 C74.2135638,15.7490449 76.4805231,14.7808455 78.7908346,14.7808455 C83.6625392,14.7808455 86.4768201,17.6384787 86.4768201,24.314719 L86.4768201,24.3129126 Z" id="Path" fill="#19E57F"></path>
                <path d="M108.178214,15.3679067 L108.178214,36.7044192 L104.816611,36.7044192 L103.976662,35.0245211 C102.421402,36.5779753 100.195988,37.2914804 97.5930492,37.2914804 C92.4684568,37.2914804 89.2766503,34.6469956 89.2766503,28.3031223 L89.2766503,23.7673973 C89.2766503,17.4253303 92.4684568,14.7790392 97.5930492,14.7790392 C100.197794,14.7790392 102.423208,15.4925443 103.976662,17.0459985 L104.816611,15.3661004 L108.178214,15.3661004 L108.178214,15.3679067 Z M103.180065,28.8919898 L103.180065,23.1803362 C102.844086,20.660489 101.205733,19.4412081 98.6858861,19.4412081 C95.8716052,19.4412081 94.2747988,20.8700247 94.2747988,24.0184789 L94.2747988,28.0520407 C94.2747988,31.2023013 95.8716052,32.6293115 98.6858861,32.6293115 C101.164187,32.6293115 102.844086,31.4100306 103.180065,28.8901834 L103.180065,28.8919898 Z" id="Shape" fill="#19E57F"></path>
                <path d="M121.803452,32.0837962 L121.803452,36.7044192 L118.779635,36.7044192 C113.738135,36.7044192 111.176742,34.099674 111.176742,28.6824541 L111.176742,9.97055662 L116.17489,9.97055662 L116.17489,15.3679067 L121.509018,15.3679067 L121.509018,19.9885297 L116.17489,19.9885297 L116.17489,27.7160611 C116.17489,30.7398777 117.394171,32.0837962 119.82912,32.0837962 L121.803452,32.0837962 L121.803452,32.0837962 Z" id="Path" fill="#19E57F"></path>
                <polygon id="Path" fill="#19E57F" points="138.797518 7.30258939 138.797518 36.7044192 133.79937 36.7044192 133.79937 7.30258939 138.797518 7.30258939"></polygon>
                <polygon id="Path" fill="#19E57F" points="147.794908 7.30258939 147.794908 36.7044192 142.796759 36.7044192 142.796759 7.30258939 147.794908 7.30258939"></polygon>
                <path d="M151.810406,7.30258939 L156.933192,7.30258939 L156.933192,12.6385239 L151.810406,12.6385239 L151.810406,7.30258939 Z M151.893498,15.3661004 L156.891647,15.3661004 L156.891647,36.7026129 L151.893498,36.7026129 L151.893498,15.3661004 Z" id="Shape" fill="#19E57F"></path>
                <path d="M124.718888,7.30258939 L129.841674,7.30258939 L129.841674,12.6385239 L124.718888,12.6385239 L124.718888,7.30258939 Z M124.80198,15.3661004 L129.800128,15.3661004 L129.800128,36.7026129 L124.80198,36.7026129 L124.80198,15.3661004 Z" id="Shape" fill="#19E57F"></path>
                <path d="M159.691477,28.2200305 L159.691477,23.8522954 C159.691477,18.2652794 163.053079,14.7790392 169.100713,14.7790392 C175.148346,14.7790392 178.551494,18.2652794 178.551494,23.8522954 L178.551494,28.2200305 C178.551494,33.8070465 175.191698,37.2932867 169.144065,37.2932867 C163.096432,37.2932867 159.691477,33.8070465 159.691477,28.2200305 Z M173.551539,28.0520407 L173.551539,24.0184789 C173.551539,20.9946623 172.207621,19.3996622 169.142258,19.3996622 C166.076896,19.3996622 164.689625,20.9964686 164.689625,24.0184789 L164.689625,28.0520407 C164.689625,31.0758573 166.07509,32.6708574 169.100713,32.6708574 C172.126336,32.6708574 173.551539,31.0758573 173.551539,28.0520407 Z" id="Shape" fill="#19E57F"></path>
                <path d="M199.998194,24.3129126 L199.998194,36.7044192 L195.000045,36.7044192 L195.000045,24.2731731 C195.000045,20.9964686 193.278601,19.4430144 190.758754,19.4430144 C188.448442,19.4430144 186.432565,20.8284788 186.307927,23.6427597 L186.307927,36.7062256 L181.351325,36.7062256 L181.351325,15.3697131 L184.586483,15.3697131 L185.51133,17.2194073 C187.108137,15.5810551 189.416642,14.7826519 191.936489,14.7826519 C196.851546,14.7826519 200,17.5969328 200,24.3165253 L199.998194,24.3129126 Z" id="Path" fill="#19E57F"></path>
                <path d="M0,35.5899062 L0,16.4842261 C0,14.0077311 1.32043605,11.7209021 3.46456408,10.4817514 L20.0106574,0.928008237 C22.1547855,-0.309336079 24.7974639,-0.309336079 26.9415919,0.928008237 L43.4876853,10.4817514 C45.6318133,11.7190957 46.9522493,14.0077311 46.9522493,16.4842261 L46.9522493,35.5899062 C46.9522493,38.0664011 45.6318133,40.3532302 43.4876853,41.5923808 L26.9415919,51.146124 C24.7974639,52.3834684 22.1547855,52.3834684 20.0106574,51.146124 L3.46456408,41.5923808 C1.32043605,40.3550365 0,38.0664011 0,35.5899062 Z" id="Path" fill="#19E57F"></path>
                <path d="M7.6859855,37.7123581 C6.9905438,37.7123581 6.29148942,37.4721146 5.72429801,36.9807896 C4.47250296,35.895178 4.3370273,34.0021315 5.42083254,32.7503364 L21.2100686,14.5189259 C22.2938738,13.2671309 24.1869203,13.1298489 25.4405217,14.2154605 C26.6923167,15.2992657 26.8277924,17.1923122 25.7439871,18.4459136 L9.95475113,36.6773241 C9.36227093,37.3619277 8.52593456,37.7123581 7.6859855,37.7123581 L7.6859855,37.7123581 Z" id="Path" fill="#FFFFFF"></path>
                <path d="M39.2752956,37.7123581 C38.4299275,37.7123581 37.5881721,37.3565087 36.9956919,36.6628733 L27.1601593,25.1709251 C26.0817731,23.913711 26.2280868,22.0188582 27.4889136,20.9422783 C28.7461277,19.8656985 30.6409805,20.0120122 31.7175604,21.2710326 L41.5530929,32.7629808 C42.6314791,34.0201949 42.4851654,35.9150477 41.2243387,36.9916276 C40.6589536,37.4757273 39.9671246,37.7123581 39.2771019,37.7123581 L39.2752956,37.7123581 Z" id="Path" fill="#FFFFFF"></path>
                <path d="M19.5988114,37.7123581 C18.9087888,37.7123581 18.2169597,37.4739209 17.6515747,36.9916276 C16.3925543,35.9150477 16.2444342,34.0220012 17.3228204,32.7629808 L27.158353,21.2710326 C28.2367392,20.0120122 30.126173,19.8656985 31.3869998,20.9422783 C32.6460202,22.0188582 32.7941402,23.913711 31.715754,25.1709251 L21.8802215,36.6628733 C21.2877413,37.3565087 20.4459859,37.7123581 19.6006178,37.7123581 L19.5988114,37.7123581 Z" id="Path" fill="#FFFFFF"></path>
            </g>
        </g>
    </g>
</svg>