<svg width="308" height="59" viewBox="0 0 308 59" fill="none" xmlns="http://www.w3.org/2000/svg">
    <g clip-path="url(#clip0_3676_1542)">
        <path d="M60.3394 25.4864C58.6671 12.9773 49.3689 2.80952 37.2612 0C36.3247 1.13719 34.1172 4.41497 33.3145 5.55215C35.1206 7.49206 36.0571 9.63265 37.395 12.0408C40.2045 17.1247 41.8768 23.212 41.8768 29.7007C41.8768 36.1893 40.2045 42.2766 37.395 47.3605C36.0571 49.7687 35.1206 51.9093 33.3145 53.8492C34.0503 54.9195 35.9233 57.5952 36.9267 59C50.4392 55.9898 60.5401 44.0159 60.607 29.6338C60.607 28.229 60.4732 26.8243 60.3394 25.4864ZM41.9437 55.1202C41.4755 54.4512 40.9403 53.7823 40.472 53.0465C45.5559 46.9592 48.6999 38.7313 48.6999 29.7007C48.6999 20.6032 45.5559 12.3753 40.472 6.35488C40.9403 5.68594 41.4086 4.95011 41.9437 4.28118C49.4358 9.49887 54.4528 18.9308 54.4528 29.7007C54.4528 40.4705 49.4358 49.9025 41.9437 55.1202Z" fill="#009CB8"/>
        <path d="M34.9862 26.4897C34.5849 20.8707 33.1801 15.5192 30.9726 10.8367C30.103 9.03055 29.0996 7.29132 28.0293 5.61899C27.0928 4.21423 26.1563 2.94325 25.086 1.73917C24.9522 1.60538 24.8184 1.4716 24.7515 1.33781C24.3502 0.869555 23.9488 0.468194 23.5475 0.0668335C11.3729 2.80946 2.00778 12.9773 0.402339 25.5532C0.402339 25.7539 0.335446 25.8877 0.335446 26.0884C0.335446 26.1553 0.335446 26.1553 0.335446 26.2222C0.201659 27.2925 0.134766 28.4296 0.134766 29.5668C0.201659 44.0158 10.3695 55.9897 23.8819 58.933C24.1495 58.6655 24.4171 58.331 24.6847 58.0634C24.8184 57.9296 24.9522 57.7959 25.0191 57.6621C26.0894 56.458 27.0928 55.1201 27.9624 53.7823C29.0327 52.1099 30.0361 50.3707 30.9057 48.5646C33.1132 43.8151 34.5849 38.5306 34.9193 32.9115C34.9862 31.8412 35.0531 30.7709 35.0531 29.7006C35.12 28.6303 35.0531 27.56 34.9862 26.4897ZM28.6983 29.7006C28.6983 30.6371 28.6983 31.5067 28.6314 32.4433C28.2969 37.1927 27.0928 41.7414 25.2198 45.755C24.484 47.2936 23.6812 48.7652 22.7447 50.17C21.942 51.3072 21.1393 52.4444 20.2028 53.4478C20.1359 53.5816 20.0021 53.6485 19.9352 53.7823C19.7345 53.9829 19.6007 54.1836 19.4001 54.3843C19.1994 54.6519 19.0656 54.9194 18.8649 55.1201C11.3729 49.9024 6.35585 40.4705 6.35585 29.7006C6.35585 18.9308 11.3729 9.49881 18.8649 4.28112C19.0656 4.4818 19.1994 4.74937 19.4001 4.95005C19.6007 5.15073 19.8014 5.35141 20.0021 5.55209C20.069 5.68588 20.2028 5.75277 20.2697 5.88656C21.1393 6.95686 22.0089 8.02715 22.8116 9.16434C23.7481 10.5691 24.5509 12.0408 25.2867 13.5793C27.1597 17.5929 28.3638 22.0748 28.6983 26.8911C28.6983 27.8276 28.6983 28.7641 28.6983 29.7006Z" fill="#0B4A82"/>
        <path d="M21.408 13.6463C20.6722 12.1078 19.8695 10.6361 18.933 9.23134C18.7992 9.03066 18.6654 8.76309 18.5985 8.49551C14.518 14.3152 12.043 21.6735 12.043 29.7007C12.043 37.7279 14.518 45.0862 18.5985 50.9059C18.6654 50.5715 18.7992 50.3039 18.933 50.1032C19.8695 48.6985 20.6722 47.2268 21.408 45.6883C21.6087 45.2869 21.7425 44.8855 21.9432 44.4842C20.0033 40.0692 18.8661 35.0522 18.8661 29.7007C18.8661 24.3493 20.0033 19.3322 21.9432 14.8504C21.8094 14.449 21.6087 14.0477 21.408 13.6463Z" fill="#AFCA0F"/>
        <path d="M85.0906 7.7596C89.4387 7.7596 92.9171 9.16436 95.3922 11.907C97.9341 14.6496 99.1382 18.4625 99.1382 23.2789C99.1382 28.0952 97.8672 31.9081 95.3922 34.5839C92.8502 37.3265 89.4387 38.6644 85.0906 38.6644C80.7425 38.6644 77.3309 37.3265 74.789 34.5839C72.3139 31.8412 71.043 28.0952 71.043 23.212C71.043 18.3957 72.3139 14.5827 74.789 11.8401C77.3309 9.16436 80.7425 7.7596 85.0906 7.7596ZM85.0906 12.1746C82.6824 12.1746 80.7425 13.178 79.2709 15.1179C77.7992 17.1247 76.9965 19.8004 76.9965 23.1451C76.9965 26.4898 77.7323 29.1655 79.2709 31.1723C80.7425 33.1791 82.6824 34.1825 85.0906 34.1825C87.4987 34.1825 89.4387 33.1791 90.9772 31.1723C92.5158 29.1655 93.2516 26.4898 93.2516 23.1451C93.2516 19.8004 92.5158 17.1247 90.9772 15.1179C89.4387 13.178 87.4987 12.1746 85.0906 12.1746Z" fill="#0B4A82"/>
        <path d="M103.419 21.0044C103.419 19.8004 102.75 19.1983 101.412 19.1983H100.877V16.3888H105.76C107.566 16.3888 108.436 17.1915 108.436 18.8639V20.5362C110.108 17.3922 112.717 15.8537 116.262 15.8537C119.273 15.8537 121.614 16.9908 123.219 19.3321C124.691 21.4058 125.427 23.9478 125.427 27.0917C125.427 30.1688 124.691 32.7777 123.152 34.9183C121.413 37.3264 119.139 38.5305 116.196 38.5305C112.985 38.5305 110.576 37.2595 108.971 34.7845V47.026H103.419V21.0044ZM118.537 22.4092C117.6 20.8707 116.329 20.1348 114.59 20.1348C112.717 20.1348 111.245 20.8707 110.242 22.3423C109.372 23.6133 108.971 25.2187 108.971 27.2255C108.971 29.1654 109.372 30.704 110.175 32.0419C111.112 33.5804 112.516 34.3162 114.323 34.3162C116.129 34.3162 117.533 33.5135 118.47 31.975C119.273 30.6371 119.674 29.0317 119.674 27.0917C119.674 25.2187 119.273 23.6802 118.537 22.4092Z" fill="#0B4A82"/>
        <path d="M136.934 9.3651V16.4558H142.218V20.5363H136.934V30.0352C136.934 31.6406 137.201 32.7778 137.67 33.5136C138.138 34.2494 139.008 34.5839 140.145 34.5839C140.747 34.5839 141.483 34.4501 142.285 34.1826L142.352 38.1293C141.081 38.4637 139.81 38.5975 138.472 38.5975C135.864 38.5975 134.057 37.9286 132.92 36.6576C131.85 35.3866 131.248 33.246 131.248 30.3696V20.5363H126.967V16.4558H131.516V11.1712L136.934 9.3651Z" fill="#0B4A82"/>
        <path d="M145.561 38.1292V21.0045C145.561 19.8004 144.893 19.1984 143.555 19.1984H143.02V16.3889H148.438C150.244 16.3889 151.114 17.1916 151.114 18.8639V38.1292H145.561ZM152.05 9.29817C152.05 11.1712 150.846 12.1077 148.371 12.1077C145.896 12.1077 144.692 11.1712 144.692 9.29817C144.692 7.49205 145.896 6.55554 148.371 6.55554C150.846 6.55554 152.05 7.42516 152.05 9.29817Z" fill="#0B4A82"/>
        <path d="M162.018 38.1292H156.466V21.0044C156.466 19.8004 155.663 19.1983 154.125 19.1983H153.924V16.3888H158.874C160.613 16.3888 161.55 17.1915 161.55 18.797V20.3355C163.155 17.3922 165.697 15.8537 169.042 15.8537C172.186 15.8537 174.393 17.3922 175.597 20.4693C177.27 17.3922 179.812 15.8537 183.223 15.8537C185.765 15.8537 187.638 16.7902 188.909 18.7301C189.913 20.3355 190.448 22.4761 190.448 25.1518V38.1292H184.895V26.3559C184.895 22.4761 183.625 20.6031 181.149 20.6031C179.41 20.6031 178.139 21.3389 177.27 22.8106C176.534 24.0146 176.199 25.5532 176.199 27.3593V38.1292H170.647V26.3559C170.647 22.4761 169.376 20.6031 166.901 20.6031C165.229 20.6031 163.891 21.3389 163.088 22.8106C162.352 24.0146 162.018 25.5532 162.018 27.3593V38.1292Z" fill="#0B4A82"/>
        <path d="M213.391 31.7075C213.391 33.246 213.458 34.1825 213.592 34.4501C213.86 34.9853 214.662 35.2528 215.933 35.2528V38.1293H211.117C209.378 38.1293 208.508 37.3265 208.441 35.6542L208.374 34.6508C206.501 37.3265 204.093 38.7313 201.016 38.7313C198.875 38.7313 197.136 38.1293 195.798 36.8583C194.46 35.5873 193.725 33.9819 193.725 31.9082C193.725 28.6304 195.464 26.4898 198.875 25.4195C200.615 24.8844 203.692 24.6168 207.973 24.6168V24.3492C207.973 21.2721 206.167 19.6667 202.621 19.6667C200.682 19.6667 198.608 20.2687 196.4 21.4059L196.333 17.4592C198.875 16.4558 201.417 15.9206 203.959 15.9206C207.237 15.9206 209.578 16.7234 211.05 18.2619C212.254 19.5329 212.99 21.4728 213.257 24.1485C213.391 24.6837 213.391 27.2256 213.391 31.7075ZM208.04 28.898V27.7608H206.1C201.551 27.7608 199.277 29.0317 199.277 31.5068C199.277 32.5102 199.611 33.3129 200.28 33.8481C200.949 34.4501 201.819 34.7177 202.822 34.7177C204.428 34.7177 205.699 34.1156 206.702 32.9785C207.572 31.9082 208.04 30.5034 208.04 28.898Z" fill="#0B4A82"/>
        <path d="M218.409 8.42853H226.904C231.921 8.42853 235.533 9.16436 237.741 10.5691C242.022 13.2449 244.096 17.4591 244.096 23.212C244.096 28.8979 241.955 33.1122 237.607 35.8548C235.199 37.3934 231.453 38.1292 226.369 38.1292H218.342V8.42853H218.409ZM224.362 12.8435V33.5805H227.774C231.052 33.5805 233.593 32.6439 235.4 30.8378C237.206 29.0317 238.142 26.4898 238.142 23.212C238.142 19.8673 237.206 17.3254 235.4 15.5861C233.593 13.8469 230.985 12.9104 227.573 12.9104H224.362V12.8435Z" fill="#AFCA0F"/>
        <path d="M266.104 31.7075C266.104 33.246 266.171 34.1825 266.305 34.4501C266.572 34.9853 267.375 35.2528 268.646 35.2528V38.1293H263.83C262.091 38.1293 261.221 37.3265 261.154 35.6542L261.087 34.6508C259.214 37.3265 256.806 38.7313 253.729 38.7313C251.588 38.7313 249.849 38.1293 248.511 36.8583C247.173 35.5873 246.438 33.9819 246.438 31.9082C246.438 28.6304 248.177 26.4898 251.588 25.4195C253.328 24.8844 256.405 24.6168 260.686 24.6168V24.3492C260.686 21.2721 258.88 19.6667 255.334 19.6667C253.394 19.6667 251.321 20.2687 249.113 21.4059L249.046 17.4592C251.588 16.4558 254.13 15.9206 256.672 15.9206C259.95 15.9206 262.291 16.7234 263.763 18.2619C264.967 19.5329 265.703 21.4728 265.97 24.1485C266.104 24.6837 266.104 27.2256 266.104 31.7075ZM260.82 28.898V27.7608H258.88C254.331 27.7608 252.057 29.0317 252.057 31.5068C252.057 32.5102 252.391 33.3129 253.06 33.8481C253.729 34.4501 254.598 34.7177 255.602 34.7177C257.207 34.7177 258.478 34.1156 259.482 32.9785C260.351 31.9082 260.82 30.5034 260.82 28.898Z" fill="#AFCA0F"/>
        <path d="M278.614 9.3651V16.4558H283.898V20.5363H278.614V30.0352C278.614 31.6406 278.881 32.7778 279.349 33.5136C279.818 34.2494 280.687 34.5839 281.824 34.5839C282.427 34.5839 283.162 34.4501 283.965 34.1826L284.032 38.1293C282.761 38.4637 281.49 38.5975 280.152 38.5975C277.543 38.5975 275.737 37.9286 274.6 36.6576C273.53 35.3866 272.928 33.246 272.928 30.3696V20.5363H268.646V16.4558H273.195V11.1712L278.614 9.3651Z" fill="#AFCA0F"/>
        <path d="M305.303 31.7075C305.303 33.246 305.37 34.1825 305.504 34.4501C305.772 34.9853 306.574 35.2528 307.845 35.2528V38.1293H303.029C301.29 38.1293 300.42 37.3265 300.353 35.6542L300.286 34.6508C298.413 37.3265 296.005 38.7313 292.928 38.7313C290.788 38.7313 289.048 38.1293 287.71 36.8583C286.373 35.5873 285.637 33.9819 285.637 31.9082C285.637 28.6304 287.376 26.4898 290.788 25.4195C292.527 24.8844 295.604 24.6168 299.885 24.6168V24.3492C299.885 21.2721 298.079 19.6667 294.534 19.6667C292.594 19.6667 290.52 20.2687 288.312 21.4059L288.246 17.4592C290.788 16.4558 293.329 15.9206 295.871 15.9206C299.149 15.9206 301.49 16.7234 302.962 18.2619C304.166 19.5329 304.902 21.4728 305.17 24.1485C305.236 24.6837 305.303 27.2256 305.303 31.7075ZM299.952 28.898V27.7608H298.012C293.463 27.7608 291.189 29.0317 291.189 31.5068C291.189 32.5102 291.523 33.3129 292.192 33.8481C292.861 34.4501 293.731 34.7177 294.734 34.7177C296.34 34.7177 297.611 34.1156 298.614 32.9785C299.484 31.9082 299.952 30.5034 299.952 28.898Z" fill="#AFCA0F"/>
        <path d="M116.195 44.9523H121.413V46.4909H117.935V48.5646H121.079V50.1031H117.935V52.1768H121.48V53.7154H116.195V44.9523Z" fill="#009CB8"/>
        <path d="M127.366 49.2335L124.891 44.9523H126.965L128.303 47.4943L128.57 48.3639L128.838 47.4943L130.243 44.9523H132.116L129.574 49.1666L132.249 53.7154H130.176L128.637 51.0397L128.303 50.1031L127.968 51.0397L126.43 53.7154H124.557L127.366 49.2335Z" fill="#009CB8"/>
        <path d="M135.729 45.0192C136.063 44.9523 136.464 44.8854 136.866 44.8854C137.267 44.8185 137.735 44.8185 138.137 44.8185C138.538 44.8185 139.006 44.8854 139.475 44.9523C139.943 45.0192 140.277 45.153 140.679 45.3537C141.013 45.5544 141.348 45.8888 141.548 46.2233C141.749 46.6247 141.883 47.0929 141.883 47.695C141.883 48.2301 141.816 48.6984 141.615 49.0997C141.414 49.5011 141.147 49.7686 140.879 50.0362C140.545 50.3038 140.21 50.4376 139.809 50.5714C139.408 50.7052 139.006 50.7052 138.538 50.7052C138.471 50.7052 138.404 50.7052 138.337 50.7052C138.27 50.7052 138.137 50.7052 138.07 50.7052C138.003 50.7052 137.869 50.7052 137.802 50.7052C137.735 50.7052 137.668 50.7052 137.602 50.7052V53.7154H135.862V45.0192H135.729ZM138.27 46.2902C138.07 46.2902 137.936 46.2902 137.802 46.2902C137.668 46.2902 137.535 46.2902 137.468 46.3571V49.2335C137.468 49.2335 137.535 49.2335 137.602 49.2335C137.668 49.2335 137.735 49.2335 137.802 49.2335C137.869 49.2335 137.936 49.2335 138.003 49.2335C138.07 49.2335 138.137 49.2335 138.137 49.2335C138.337 49.2335 138.605 49.2335 138.806 49.1666C139.006 49.0997 139.207 49.0328 139.408 48.9659C139.608 48.8321 139.742 48.6983 139.809 48.4977C139.943 48.297 139.943 48.0294 139.943 47.695C139.943 47.4274 139.876 47.1598 139.809 47.026C139.742 46.8253 139.608 46.6915 139.408 46.6247C139.274 46.4909 139.073 46.424 138.873 46.424C138.672 46.424 138.471 46.2902 138.27 46.2902Z" fill="#009CB8"/>
        <path d="M145.428 44.9523H150.645V46.4909H147.167V48.5646H150.311V50.1031H147.167V52.1768H150.712V53.7154H145.428V44.9523Z" fill="#009CB8"/>
        <path d="M154.459 45.0192C154.66 45.0192 154.86 44.9523 155.061 44.9523C155.262 44.9523 155.529 44.8854 155.73 44.8854C155.931 44.8854 156.198 44.8854 156.399 44.8185C156.6 44.8185 156.8 44.8185 157.001 44.8185C157.402 44.8185 157.804 44.8854 158.205 44.9523C158.606 45.0192 158.941 45.153 159.275 45.3537C159.61 45.5544 159.81 45.8219 160.011 46.0895C160.212 46.424 160.279 46.8253 160.279 47.2936C160.279 48.0294 160.078 48.5646 159.81 49.0328C159.476 49.5011 159.008 49.7686 158.473 49.9693L159.075 50.3707L161.081 53.7154H159.075L157.068 50.3038L156.198 50.17V53.7823H154.459V45.0192ZM157.068 46.3571C156.867 46.3571 156.733 46.3571 156.533 46.3571C156.332 46.3571 156.198 46.3571 156.131 46.424V48.9659H156.867C157.335 48.9659 157.737 48.8321 158.004 48.6315C158.272 48.4308 158.406 48.0294 158.406 47.5612C158.406 47.1598 158.272 46.8922 158.071 46.6915C157.871 46.4909 157.536 46.3571 157.068 46.3571Z" fill="#009CB8"/>
        <path d="M170.112 46.4909H167.57V53.7154H165.831V46.4909H163.289V44.9523H170.112V46.4909Z" fill="#009CB8"/>
        <path d="M173.725 44.9523H175.464V53.7154H173.725V44.9523Z" fill="#009CB8"/>
        <path d="M183.357 51.3741C183.357 51.1066 183.29 50.9059 183.089 50.7052C182.889 50.5045 182.621 50.3707 182.353 50.237C182.086 50.1032 181.751 49.9694 181.417 49.8356C181.082 49.7018 180.748 49.5011 180.48 49.3004C180.213 49.0998 179.945 48.8322 179.745 48.4977C179.544 48.1633 179.477 47.7619 179.477 47.2936C179.477 46.8923 179.544 46.4909 179.678 46.1565C179.812 45.822 180.012 45.5544 180.28 45.3537C180.547 45.1531 180.882 45.0193 181.216 44.8855C181.551 44.8186 181.952 44.7517 182.42 44.7517C182.955 44.7517 183.424 44.8186 183.892 44.8855C184.36 44.9524 184.695 45.0862 185.029 45.2868L184.494 46.7585C184.293 46.6247 184.026 46.5578 183.691 46.424C183.29 46.3571 182.956 46.2902 182.487 46.2902C182.086 46.2902 181.751 46.3571 181.551 46.5578C181.35 46.6916 181.216 46.9592 181.216 47.2267C181.216 47.4943 181.283 47.695 181.484 47.8288C181.685 48.0295 181.952 48.1633 182.22 48.297C182.487 48.4308 182.822 48.5646 183.156 48.7653C183.491 48.8991 183.825 49.0998 184.093 49.3004C184.36 49.5011 184.628 49.7687 184.829 50.1032C185.029 50.4376 185.096 50.839 185.096 51.3072C185.096 51.7755 185.029 52.1769 184.895 52.5113C184.762 52.8458 184.494 53.1134 184.226 53.3809C183.959 53.5816 183.624 53.7823 183.223 53.8492C182.822 53.983 182.42 53.983 181.885 53.983C181.283 53.983 180.681 53.9161 180.213 53.7823C179.745 53.6485 179.41 53.5816 179.143 53.4478L179.678 51.9762C179.745 52.0431 179.878 52.11 180.012 52.11C180.146 52.1769 180.347 52.2438 180.48 52.2438C180.681 52.3106 180.882 52.3107 181.082 52.3775C181.283 52.3775 181.484 52.4444 181.685 52.4444C182.22 52.4444 182.554 52.3775 182.889 52.1769C183.223 51.9762 183.357 51.7086 183.357 51.3741Z" fill="#009CB8"/>
        <path d="M188.775 44.9523H193.993V46.4909H190.515V48.5646H193.659V50.1031H190.515V52.1768H194.06V53.7154H188.775V44.9523Z" fill="#009CB8"/>
        <path d="M203.691 44.9523H205.431V53.7154H203.691V44.9523Z" fill="#009CB8"/>
        <path d="M211.719 49.1667L211.05 47.7619H210.983L211.184 49.1667V53.7154H209.578V44.8855H210.849L214.194 49.568L214.863 50.9059H214.93L214.729 49.568V44.9524H216.334V53.7823H215.063L211.719 49.1667Z" fill="#009CB8"/>
        <path d="M225.967 44.9523C226.167 44.9523 226.368 44.8854 226.569 44.8854C226.77 44.8854 227.037 44.8854 227.238 44.8185C227.438 44.8185 227.706 44.8185 227.907 44.8185C228.107 44.8185 228.308 44.8185 228.509 44.8185C229.311 44.8185 229.98 44.9523 230.516 45.153C231.051 45.3537 231.519 45.6881 231.853 46.0895C232.188 46.4909 232.455 46.9591 232.589 47.4943C232.723 48.0294 232.857 48.6315 232.857 49.3004C232.857 49.9024 232.79 50.4376 232.656 51.0396C232.522 51.5748 232.255 52.1099 231.92 52.5113C231.586 52.9126 231.118 53.2471 230.516 53.5147C229.914 53.7822 229.245 53.916 228.375 53.916C228.241 53.916 228.04 53.916 227.84 53.916C227.639 53.916 227.372 53.916 227.171 53.916C226.903 53.916 226.703 53.916 226.502 53.8491C226.301 53.8491 226.101 53.8491 226.034 53.7822V44.9523H225.967ZM228.709 46.3571C228.509 46.3571 228.308 46.3571 228.174 46.3571C227.974 46.3571 227.84 46.3571 227.773 46.424V52.3106C227.773 52.3106 227.84 52.3106 227.974 52.3106C228.04 52.3106 228.107 52.3106 228.241 52.3106C228.308 52.3106 228.442 52.3106 228.509 52.3106C228.576 52.3106 228.643 52.3106 228.709 52.3106C229.178 52.3106 229.579 52.2437 229.914 52.043C230.248 51.8423 230.516 51.6417 230.649 51.3741C230.85 51.1065 230.984 50.772 231.051 50.3707C231.118 49.9693 231.184 49.6349 231.184 49.2335C231.184 48.899 231.184 48.5646 231.118 48.2301C231.051 47.8956 230.917 47.5612 230.716 47.2936C230.516 47.026 230.315 46.7584 229.98 46.6247C229.579 46.424 229.178 46.3571 228.709 46.3571Z" fill="#009CB8"/>
        <path d="M240.617 51.7755H237.941L237.272 53.7154H235.533L238.677 44.8855H239.948L243.092 53.7154H241.286L240.617 51.7755ZM238.343 50.4377H240.216L239.547 48.4978L239.279 47.093H239.212L238.945 48.4978L238.343 50.4377Z" fill="#009CB8"/>
        <path d="M251.589 46.4909H249.047V53.7154H247.308V46.4909H244.766V44.9523H251.589V46.4909Z" fill="#009CB8"/>
        <path d="M258.344 51.7755H255.668L254.999 53.7154H253.26L256.404 44.8855H257.675L260.819 53.7154H259.013L258.344 51.7755ZM256.069 50.4377H257.942L257.273 48.4978L257.006 47.093L256.738 48.4978L256.069 50.4377Z" fill="#009CB8"/>
        <path d="M270.051 47.026C270.051 47.2267 270.051 47.4274 269.984 47.695C269.917 47.8956 269.85 48.0963 269.716 48.297C269.582 48.4977 269.449 48.6315 269.248 48.7652C269.047 48.899 268.78 49.0328 268.512 49.0997V49.1666C268.78 49.2335 268.98 49.3004 269.248 49.3673C269.449 49.4342 269.649 49.6349 269.85 49.7686C269.984 49.9693 270.118 50.17 270.251 50.4376C270.318 50.7052 270.385 50.9727 270.385 51.3072C270.385 51.7754 270.318 52.1768 270.118 52.5113C269.917 52.8457 269.649 53.1133 269.315 53.314C268.98 53.5147 268.646 53.6485 268.245 53.7822C267.843 53.916 267.442 53.916 266.974 53.916C266.84 53.916 266.639 53.916 266.438 53.916C266.238 53.916 265.97 53.916 265.703 53.916C265.435 53.916 265.167 53.916 264.9 53.8491C264.632 53.8491 264.365 53.7823 264.164 53.7154V45.0192C264.298 45.0192 264.499 44.9523 264.699 44.9523C264.9 44.9523 265.101 44.8854 265.368 44.8854C265.569 44.8854 265.836 44.8854 266.104 44.8185C266.372 44.8185 266.572 44.8185 266.84 44.8185C267.241 44.8185 267.643 44.8185 268.044 44.8854C268.445 44.9523 268.78 45.0861 269.114 45.2199C269.449 45.3537 269.649 45.6213 269.85 45.8888C269.917 46.2233 270.051 46.5578 270.051 47.026ZM266.305 48.6315C266.438 48.6315 266.572 48.6315 266.706 48.6315C266.84 48.6315 266.974 48.6315 267.107 48.5646C267.442 48.4977 267.709 48.297 267.91 48.0963C268.111 47.8956 268.245 47.6281 268.245 47.2936C268.245 47.0929 268.178 46.8922 268.111 46.7584C268.044 46.6247 267.91 46.4909 267.776 46.424C267.643 46.3571 267.509 46.2902 267.308 46.2233C267.107 46.2233 266.974 46.1564 266.773 46.1564C266.572 46.1564 266.372 46.1564 266.171 46.1564C265.97 46.1564 265.836 46.1564 265.77 46.2233V48.5646H266.305V48.6315ZM266.907 52.4444C267.107 52.4444 267.308 52.4444 267.509 52.3775C267.709 52.3106 267.91 52.2437 268.044 52.1768C268.178 52.043 268.311 51.9761 268.378 51.7754C268.445 51.6417 268.512 51.441 268.512 51.2403C268.512 50.9727 268.445 50.772 268.378 50.5714C268.245 50.4376 268.111 50.3038 267.977 50.2369C267.776 50.17 267.576 50.1031 267.375 50.0362C267.174 50.0362 266.974 49.9693 266.706 49.9693H265.77V52.3775C265.836 52.3775 265.903 52.3775 265.97 52.4444C266.037 52.4444 266.171 52.4444 266.238 52.4444C266.372 52.4444 266.438 52.4444 266.572 52.4444C266.706 52.3775 266.84 52.4444 266.907 52.4444Z" fill="#009CB8"/>
        <path d="M278.346 51.7755H275.67L275.001 53.7154H273.262L276.406 44.8855H277.677L280.821 53.7154H279.081L278.346 51.7755ZM276.138 50.4377H278.011L277.342 48.4978L277.075 47.093H277.008L276.74 48.4978L276.138 50.4377Z" fill="#009CB8"/>
        <path d="M287.912 51.3741C287.912 51.1066 287.845 50.9059 287.644 50.7052C287.443 50.5045 287.176 50.3707 286.908 50.237C286.641 50.1032 286.306 49.9694 285.972 49.8356C285.637 49.7018 285.303 49.5011 285.035 49.3004C284.768 49.0998 284.5 48.8322 284.299 48.4977C284.099 48.1633 284.032 47.7619 284.032 47.2936C284.032 46.8923 284.099 46.4909 284.232 46.1565C284.366 45.822 284.567 45.5544 284.834 45.3537C285.102 45.1531 285.436 45.0193 285.771 44.8855C286.105 44.8186 286.507 44.7517 286.975 44.7517C287.51 44.7517 287.978 44.8186 288.447 44.8855C288.915 44.9524 289.249 45.0862 289.584 45.2868L289.049 46.7585C288.848 46.6247 288.58 46.5578 288.246 46.424C287.912 46.3571 287.51 46.2902 287.042 46.2902C286.641 46.2902 286.306 46.3571 286.105 46.5578C285.905 46.6916 285.771 46.9592 285.771 47.2267C285.771 47.4943 285.838 47.695 286.039 47.8288C286.239 48.0295 286.507 48.1633 286.774 48.297C287.042 48.4308 287.376 48.5646 287.711 48.7653C288.045 48.8991 288.38 49.0998 288.647 49.3004C288.915 49.5011 289.183 49.7687 289.383 50.1032C289.584 50.4376 289.651 50.839 289.651 51.3072C289.651 51.7755 289.584 52.1769 289.45 52.5113C289.316 52.8458 289.049 53.1134 288.781 53.3809C288.514 53.5816 288.179 53.7823 287.778 53.8492C287.376 53.983 286.975 53.983 286.44 53.983C285.838 53.983 285.236 53.9161 284.768 53.7823C284.299 53.6485 283.965 53.5816 283.697 53.4478L284.232 51.9762C284.299 52.0431 284.433 52.11 284.567 52.11C284.701 52.1769 284.901 52.2438 285.035 52.2438C285.236 52.3106 285.436 52.3107 285.637 52.3775C285.838 52.3775 286.039 52.4444 286.239 52.4444C286.774 52.4444 287.109 52.3775 287.443 52.1769C287.778 51.9762 287.912 51.7086 287.912 51.3741Z" fill="#009CB8"/>
        <path d="M293.262 44.9523H298.479V46.4909H295.001V48.5646H298.145V50.1031H295.001V52.1768H298.546V53.7154H293.262V44.9523Z" fill="#009CB8"/>
        <path d="M306.105 51.3741C306.105 51.1066 306.038 50.9059 305.837 50.7052C305.637 50.5045 305.369 50.3707 305.102 50.237C304.834 50.1032 304.499 49.9694 304.165 49.8356C303.831 49.7018 303.496 49.5011 303.228 49.3004C302.961 49.0998 302.693 48.8322 302.493 48.4977C302.292 48.1633 302.225 47.7619 302.225 47.2936C302.225 46.8923 302.292 46.4909 302.426 46.1565C302.56 45.822 302.76 45.5544 303.028 45.3537C303.295 45.1531 303.63 45.0193 303.964 44.8855C304.299 44.8186 304.7 44.7517 305.168 44.7517C305.704 44.7517 306.172 44.8186 306.64 44.8855C307.108 44.9524 307.443 45.0862 307.777 45.2868L307.242 46.7585C307.041 46.6247 306.774 46.5578 306.439 46.424C306.105 46.3571 305.704 46.2902 305.235 46.2902C304.834 46.2902 304.499 46.3571 304.299 46.5578C304.098 46.6916 303.964 46.9592 303.964 47.2267C303.964 47.4943 304.031 47.695 304.232 47.8288C304.433 48.0295 304.7 48.1633 304.968 48.297C305.235 48.4308 305.57 48.5646 305.904 48.7653C306.239 48.8991 306.573 49.0998 306.841 49.3004C307.108 49.5011 307.376 49.7687 307.577 50.1032C307.777 50.4376 307.844 50.839 307.844 51.3072C307.844 51.7755 307.777 52.1769 307.643 52.5113C307.51 52.8458 307.242 53.1134 306.975 53.3809C306.707 53.5816 306.372 53.7823 305.971 53.8492C305.57 53.983 305.168 53.983 304.633 53.983C304.031 53.983 303.429 53.9161 302.961 53.7823C302.493 53.6485 302.158 53.5816 301.891 53.4478L302.426 51.9762C302.493 52.0431 302.626 52.11 302.76 52.11C302.894 52.1769 303.095 52.2438 303.228 52.2438C303.429 52.3106 303.63 52.3107 303.831 52.3775C304.031 52.3775 304.232 52.4444 304.433 52.4444C304.968 52.4444 305.302 52.3775 305.637 52.1769C305.971 51.9762 306.105 51.7086 306.105 51.3741Z" fill="#009CB8"/>
    </g>
    <defs>
        <clipPath id="clip0_3676_1542">
            <rect width="307.98" height="59" fill="white"/>
        </clipPath>
    </defs>
</svg>
