<svg id="a7b87b8f-1c74-43d2-a089-4b3a49a5e9da" data-name="Layer 1" xmlns="http://www.w3.org/2000/svg" viewBox="0 0 1366 768"><defs><style>.e8f5c8e4-4557-44f0-9f06-04858b2208f1{fill:#f97141;}</style></defs><polygon class="e8f5c8e4-4557-44f0-9f06-04858b2208f1" points="1052.67 321.4 1011.89 321.4 1064.02 384.47 1011.89 447.53 1052.67 447.53 1101.5 384.47 1052.67 321.4"/><polygon class="e8f5c8e4-4557-44f0-9f06-04858b2208f1" points="867.84 321.4 908.62 321.4 856.49 384.47 908.62 447.53 867.84 447.53 819.01 384.47 867.84 321.4"/><polygon class="e8f5c8e4-4557-44f0-9f06-04858b2208f1" points="313.33 321.4 354.11 321.4 301.98 384.47 354.11 447.53 313.33 447.53 264.5 384.47 313.33 321.4"/><path class="e8f5c8e4-4557-44f0-9f06-04858b2208f1" d="M604.93,333.63a44.69,44.69,0,0,0-12.28-9.16A52.45,52.45,0,0,0,568.37,319a57.51,57.51,0,0,0-31.07,8.62,60,60,0,0,0-21.68,23.5q-7.83,14.88-7.83,33.69a70.66,70.66,0,0,0,7.83,33.42,60,60,0,0,0,21.68,23.5,57.51,57.51,0,0,0,31.07,8.62,51.53,51.53,0,0,0,24.28-5.61,46.36,46.36,0,0,0,12.28-9.23v12.23h34V321.59h-34Zm-7,75.57q-8.88,9.54-23.24,9.53a31.59,31.59,0,0,1-16.58-4.3,29.88,29.88,0,0,1-11.23-12,37.84,37.84,0,0,1-4.05-17.88,37.33,37.33,0,0,1,4.05-17.63,29.86,29.86,0,0,1,11.23-12,31.59,31.59,0,0,1,16.58-4.31,32.13,32.13,0,0,1,16.84,4.31,29.93,29.93,0,0,1,11.23,12,37.33,37.33,0,0,1,4,17.63Q606.76,399.67,597.88,409.2Z"/><path class="e8f5c8e4-4557-44f0-9f06-04858b2208f1" d="M740.32,415.47a38.65,38.65,0,0,1-15.53,3,32.94,32.94,0,0,1-16.85-4.31,31.11,31.11,0,0,1-11.75-12,35.49,35.49,0,0,1-4.31-17.62,34.61,34.61,0,0,1,4.31-17.63,31.69,31.69,0,0,1,11.75-11.75,33,33,0,0,1,16.85-4.31,39.56,39.56,0,0,1,15.27,2.87,32.81,32.81,0,0,1,11.88,8.36l21.94-22.2a62.35,62.35,0,0,0-21.68-15.66,67.54,67.54,0,0,0-27.41-5.49,69.29,69.29,0,0,0-34.6,8.75,65,65,0,0,0-24.42,23.63q-8.88,14.88-8.88,33.69a63.83,63.83,0,0,0,33.17,56.92q15.41,8.63,34.73,8.62a67.7,67.7,0,0,0,27.41-5.48,66.19,66.19,0,0,0,22.2-15.93l-22.2-22.2A32.67,32.67,0,0,1,740.32,415.47Z"/><polyline class="e8f5c8e4-4557-44f0-9f06-04858b2208f1" points="822.03 382.42 822.03 278.56 787.82 278.56 787.82 447.72 822.03 447.72 822.03 389.18"/><polygon class="e8f5c8e4-4557-44f0-9f06-04858b2208f1" points="977.97 277.97 943.76 277.97 943.76 321.24 914.26 321.24 914.26 351.27 943.76 351.27 943.76 447.37 977.97 447.37 977.97 351.27 1007.48 351.27 1007.48 321.24 977.97 321.24 977.97 277.97"/><path class="e8f5c8e4-4557-44f0-9f06-04858b2208f1" d="M464.37,328.18A58,58,0,0,0,433,319.56a51.4,51.4,0,0,0-24.41,5.74,49.37,49.37,0,0,0-11.36,8.24V321.4H363.05V490H397V437.15a47.79,47.79,0,0,0,11.49,8.14A53.09,53.09,0,0,0,433,450.91a58,58,0,0,0,31.34-8.62,61,61,0,0,0,21.8-23.5,69.7,69.7,0,0,0,8-33.43q0-18.8-8-33.68A61,61,0,0,0,464.37,328.18ZM455.1,403a29.63,29.63,0,0,1-11.36,12A32.25,32.25,0,0,1,427,419.31,31.5,31.5,0,0,1,410.45,415a29.79,29.79,0,0,1-11.23-12,37.88,37.88,0,0,1-4.05-17.89,37.29,37.29,0,0,1,4.05-17.62,29.5,29.5,0,0,1,11.36-12A31.69,31.69,0,0,1,427,351.16a32.25,32.25,0,0,1,16.71,4.31,29.63,29.63,0,0,1,11.36,12,37.29,37.29,0,0,1,4,17.62A37.88,37.88,0,0,1,455.1,403Z"/></svg>