<svg xmlns="http://www.w3.org/2000/svg" viewBox="0 0 453.55 53.24"><defs><style>.cls-1{fill:#575756;}.cls-2{fill:#ee7402;}</style></defs><g id="Layer_2" data-name="Layer 2"><g id="Layer_1-2" data-name="Layer 1"><path class="cls-1" d="M20.37,8.43V50.29s-5.48,0-5.48-3.27V8.43H4.57C.59,8.43,0,4.91,0,3c0,0,1.18,1,5.62,1H29.84c4.44,0,5.62-1,5.62-1,0,2-.59,5.48-4.57,5.48Z"/><path class="cls-1" d="M41.49,3.27S47,3.27,47,6.54V50.29s-5.49,0-5.49-3.27Z"/><path class="cls-1" d="M92.28,16.73a47.54,47.54,0,0,1,.46-5.88L78.24,40.49a6.44,6.44,0,0,1-5.09-3.26L60.8,10.85a47.54,47.54,0,0,1,.46,5.88V50.29s-5.48,0-5.48-3.27V3.93h4a5.21,5.21,0,0,1,4.77,3.26L76.67,33.25l14-29.32c1.57,0,7.05,0,7.05,3.26v43.1s-5.48,0-5.48-3.27Z"/><path class="cls-1" d="M112.19,27V45.13H135.5c0,.26-.06,4.51-3.26,4.51H112.19s-5.48,0-5.48-3.27V3.93H135.5s0,4.5-3.26,4.5H112.19v14h15.09c4.44,0,5.61-1,5.61-1,0,2-.59,5.49-4.57,5.49Z"/><path class="cls-2" d="M189,26.41l27.76,26.83-24.21-4.18L177.28,33.17,162.16,49.06l-21.25,4.18,24.67-26.83L140.91,0,163,4.66l14.28,15.06L191.7,4.66,214.83,0,189,26.41"/><path class="cls-1" d="M237.78,8.41V50.26s-5.48,0-5.48-3.26V8.41H222c-4,0-4.57-3.53-4.57-5.49,0,0,1.17,1,5.61,1h24.23c4.44,0,5.62-1,5.62-1,0,2-.59,5.49-4.58,5.49Z"/><path class="cls-1" d="M264.39,27V45.1H287.7c0,.27-.07,4.51-3.27,4.51h-20s-5.49,0-5.49-3.26V3.9h28.8s0,4.51-3.27,4.51h-20v14h15.08c4.44,0,5.62-1,5.62-1,0,2-.59,5.48-4.57,5.48Z"/><path class="cls-1" d="M322.83,38.12l3,5a37.46,37.46,0,0,1-.66-5.35V3.9s5.49,0,5.49,3.27V50.26c-7,0-8.88-4.24-8.88-4.24L299.85,10.56a34.2,34.2,0,0,1,.65,5.88V50.26S295,50.26,295,47V3.9c3.72,0,6.79,0,8.81,3.27Z"/><path class="cls-1" d="M344.93,49.61c-.52,0-5.36-.13-5.36-3.26V3.9h17.31c9.6,0,18.67,3.27,18.67,15.09V34.53c0,11.82-9.07,15.08-18.67,15.08Zm.13-41.2V45.1h11.82c7.38,0,13.19-2.74,13.19-11.23V19.57c0-8.49-5.81-11.16-13.19-11.16Z"/><path class="cls-1" d="M389.3,27V45.1h23.31c0,.27-.07,4.51-3.27,4.51h-20s-5.49,0-5.49-3.26V3.9h28.8s0,4.51-3.27,4.51h-20v14h15.08c4.44,0,5.62-1,5.62-1,0,2-.59,5.48-4.58,5.48Z"/><path class="cls-1" d="M435.53,28.32c9,3.53,12.73,16.78,15.93,21.62a8.8,8.8,0,0,1-1.89.19,6.87,6.87,0,0,1-6.33-3.72c-5.16-9.6-7.58-16.59-17.83-17.89V50.26s-5.49-.06-5.49-3.26V3.9h13.46c8.94,0,15.41,2.81,15.41,11v2C448.79,24.27,443.24,28.32,435.53,28.32ZM425.41,8.41v15.8h8.49c7,0,9.4-2.87,9.4-8.29s-3.2-7.51-9.92-7.51Z"/><path class="cls-1" d="M452.09,49.25c0-.32.29-.5.73-.5s.73.18.73.5v.56c0,.31-.28.5-.73.5s-.73-.19-.73-.5Zm1.28.07c0-.25-.12-.42-.56-.42s-.54.17-.54.42v.43c0,.24.11.41.54.41s.56-.17.56-.41Zm-.88-.27h.27c.2,0,.38.07.38.3a.27.27,0,0,1-.19.28.52.52,0,0,1,.22.35h-.12a.1.1,0,0,1-.1-.06.31.31,0,0,0-.27-.24V50s-.19,0-.19-.1Zm.19.15v.34h.08a.17.17,0,0,0,.19-.17c0-.14-.08-.17-.19-.17Z"/><path class="cls-2" d="M216.17,49.26c0-.31.28-.5.73-.5s.73.19.73.5v.56c0,.32-.29.51-.73.51s-.73-.19-.73-.51Zm1.28.07c0-.24-.12-.42-.56-.42s-.55.18-.55.42v.43c0,.25.12.42.55.42s.56-.17.56-.42Zm-.88-.26h.27c.2,0,.38.07.38.3a.27.27,0,0,1-.19.28.53.53,0,0,1,.22.34l-.12,0s-.09,0-.1-.07a.34.34,0,0,0-.27-.24V50s-.19,0-.19-.09Zm.19.15v.33h.08c.1,0,.19,0,.19-.17s-.08-.16-.19-.16Z"/></g></g></svg>