<?xml version="1.0"?>
<svg width="675" height="186" xmlns="http://www.w3.org/2000/svg" xmlns:svg="http://www.w3.org/2000/svg">
 <g class="layer">
  <title>Layer 1</title>
  <path d="m202.29,13.78l0,-13.78l55.49,0l0,13.78l-55.49,0z" fill="#9BCB5E" id="svg_1"/>
  <path class="brand-name" d="m33.77,110.36c-2.9,-2.91 -4.37,-7.04 -4.37,-12.38l0,-54.12l26.07,0l0,-13.78l-26.07,0l0,-30.08l-17.07,0l0,30.08l-12.33,0l0,13.78l12.33,0l0,51.87c0,8.83 1.45,15.82 4.37,20.96c2.9,5.15 7.06,8.78 12.45,10.88c5.39,2.11 11.79,3.17 19.23,3.17l15.23,0l0,-16.03l-17.46,0c-5.32,0 -9.44,-1.46 -12.34,-4.39l-0.04,0.04zm148.18,5.12l-3.67,0l-19.96,-81.96l-24.16,0l-17.11,81.96l-3.67,0l-23.42,-85.32l-17.09,0l28.06,99.48l27.84,0l17.51,-82.71l20.21,82.71l27.68,0l24.33,-99.48l-16.16,0l-20.39,85.32zm75.83,-85.32l-17.83,0l0,99.48l17.83,0l0,-99.48zm80.22,-2.97l-0.75,0c-8.3,0 -15.18,1.78 -20.62,5.32c-5.45,3.54 -9.5,8.69 -12.17,15.45c-0.68,1.71 -1.25,3.52 -1.76,5.43l0,-23.22l-14.11,0l0,99.47l17.82,0l0,-59.42c0,-8.06 2.42,-14.53 7.24,-19.37c4.82,-4.83 11.15,-7.26 18.94,-7.26c7.79,0 13.49,2.34 17.83,7c4.33,4.65 6.5,10.83 6.5,18.52l0,60.53l17.83,0l0,-56.81c0,-14.77 -3.01,-26.07 -9.01,-33.91c-6.01,-7.81 -15.27,-11.73 -27.78,-11.73l0.04,0zm89.81,83.17c-2.9,-2.91 -4.37,-7.04 -4.37,-12.38l0,-54.12l26.07,0l0,-13.78l-26.07,0l0,-30.08l-17.1,0l0,30.08l-12.32,0l0,13.78l12.32,0l0,51.87c0,8.83 1.46,15.82 4.38,20.96c2.9,5.15 7.06,8.78 12.45,10.88c5.39,2.11 11.79,3.17 19.22,3.17l15.23,0l0,-16.03l-17.45,0c-5.32,0 -9.44,-1.46 -12.34,-4.39l-0.02,0.04zm135.49,-67.43c-4.59,-4.91 -10.16,-8.82 -16.72,-11.74c-6.56,-2.91 -14.06,-4.38 -22.47,-4.38c-8.4,0 -15.91,1.46 -22.46,4.38c-6.56,2.91 -12.13,6.83 -16.72,11.74c-4.59,4.9 -8.05,10.44 -10.41,16.58c-2.35,6.15 -3.53,12.38 -3.53,18.72l0,3.36c0,6.33 1.15,12.55 3.44,18.64c2.29,6.09 5.7,11.59 10.21,16.47c4.52,4.91 10.05,8.84 16.63,11.83c6.56,2.98 14.17,4.47 22.84,4.47c8.68,0 16.29,-1.49 22.85,-4.47c6.56,-2.99 12.09,-6.92 16.63,-11.83c4.51,-4.9 7.91,-10.4 10.21,-16.47c2.29,-6.09 3.44,-12.29 3.44,-18.64l0,-3.36c0,-6.32 -1.18,-12.57 -3.53,-18.72c-2.35,-6.14 -5.82,-11.68 -10.41,-16.58zm-8.08,55.79c-2.78,5.59 -6.81,10.02 -12.08,13.31c-5.27,3.29 -11.61,4.94 -19.04,4.94c-7.44,0 -13.78,-1.65 -19.05,-4.94c-5.27,-3.29 -9.28,-7.72 -12.08,-13.31c-2.77,-5.59 -4.17,-11.86 -4.17,-18.81c0,-6.96 1.41,-13.41 4.26,-19c2.85,-5.58 6.94,-9.99 12.26,-13.22c5.32,-3.24 11.57,-4.85 18.76,-4.85c7.18,0 13.58,1.61 18.85,4.85c5.26,3.23 9.31,7.64 12.16,13.22s4.27,11.92 4.27,19c0,7.07 -1.4,13.22 -4.18,18.81l0.04,0zm109.13,-17.97c-6.43,-4.78 -14.98,-7.73 -25.64,-8.84l-10.77,-1.12c-5.82,-0.61 -10,-2.04 -12.54,-4.27c-2.54,-2.23 -3.8,-5.21 -3.8,-8.95c0,-4.35 1.79,-7.94 5.4,-10.8c3.58,-2.86 8.85,-4.28 15.78,-4.28c6.93,0 12.16,1.41 15.7,4.19c3.52,2.8 5.35,6.18 5.48,10.15l16.71,0c-0.25,-9.81 -3.83,-17.19 -10.76,-22.17c-6.94,-4.96 -15.99,-7.46 -27.11,-7.46c-7.44,0 -14,1.21 -19.69,3.63c-5.7,2.43 -10.16,5.9 -13.37,10.44c-3.22,4.53 -4.84,9.97 -4.84,16.3c0,8.44 2.98,14.98 8.93,19.66c5.94,4.67 13.61,7.49 23.02,8.48l10.77,1.11c6.93,0.76 11.95,2.27 15.05,4.57c3.1,2.3 4.64,5.49 4.64,9.59c0,4.6 -2.12,8.48 -6.33,11.64c-4.21,3.17 -10.28,4.75 -18.2,4.75c-8.8,0 -15.02,-1.71 -18.67,-5.12c-3.65,-3.42 -5.61,-7.05 -5.84,-10.89l-16.72,0c0.25,9.68 3.93,17.32 11.06,22.91c7.11,5.58 17.18,8.37 30.19,8.37c8.04,0 15.16,-1.33 21.35,-4.01c6.2,-2.67 11.06,-6.39 14.59,-11.17c3.53,-4.78 5.28,-10.28 5.28,-16.48c0,-8.7 -3.22,-15.43 -9.65,-20.21l-0.02,-0.02z" fill="#3f3f3f" id="svg_2" opacity="0.75"/>
 </g>
</svg>